<?xml version="1.0" encoding="UTF-8" standalone="no"?>
<!DOCTYPE svg PUBLIC "-//W3C//DTD SVG 1.1//EN"
 "http://www.w3.org/Graphics/SVG/1.1/DTD/svg11.dtd">
<!-- Generated by graphviz version 2.47.3 (20210619.1520)
 -->
<!-- Title: dependencies Pages: 1 -->
<svg width="1126pt" height="174pt"
 viewBox="0.00 0.00 1126.00 173.80" xmlns="http://www.w3.org/2000/svg" xmlns:xlink="http://www.w3.org/1999/xlink">
<g id="graph0" class="graph" transform="scale(1 1) rotate(0) translate(4 169.8)">
<title>dependencies</title>
<polygon fill="white" stroke="transparent" points="-4,4 -4,-169.8 1122,-169.8 1122,4 -4,4"/>
<text text-anchor="middle" x="559" y="-8.2" font-family="sans-serif" font-size="14.00">dependencies</text>
<g id="clust1" class="cluster">
<title>cluster_GroupMonitorModule</title>
<polygon fill="none" stroke="black" stroke-dasharray="1,5" points="8,-32.8 8,-157.8 1110,-157.8 1110,-32.8 8,-32.8"/>
</g>
<g id="clust8" class="cluster">
<title>cluster_GroupMonitorModule_providers</title>
<polygon fill="none" stroke="black" points="579,-40.8 579,-92.8 1102,-92.8 1102,-40.8 579,-40.8"/>
</g>
<g id="clust5" class="cluster">
<title>cluster_GroupMonitorModule_imports</title>
<polygon fill="none" stroke="black" points="369,-40.8 369,-92.8 571,-92.8 571,-40.8 369,-40.8"/>
</g>
<g id="clust2" class="cluster">
<title>cluster_GroupMonitorModule_declarations</title>
<polygon fill="none" stroke="black" points="16,-40.8 16,-92.8 361,-92.8 361,-40.8 16,-40.8"/>
</g>
<!-- GroupMonitorComponent -->
<g id="node1" class="node">
<title>GroupMonitorComponent</title>
<polygon fill="#ffffb3" stroke="black" points="353.49,-84.8 190.51,-84.8 190.51,-48.8 353.49,-48.8 353.49,-84.8"/>
<text text-anchor="middle" x="272" y="-62.6" font-family="Times,serif" font-size="14.00">GroupMonitorComponent</text>
</g>
<!-- GroupMonitorModule -->
<g id="node3" class="node">
<title>GroupMonitorModule</title>
<polygon fill="#8dd3c7" stroke="black" points="644.7,-149.8 641.7,-153.8 620.7,-153.8 617.7,-149.8 503.3,-149.8 503.3,-113.8 644.7,-113.8 644.7,-149.8"/>
<text text-anchor="middle" x="574" y="-127.6" font-family="Times,serif" font-size="14.00">GroupMonitorModule</text>
</g>
<!-- GroupMonitorComponent&#45;&gt;GroupMonitorModule -->
<g id="edge1" class="edge">
<title>GroupMonitorComponent&#45;&gt;GroupMonitorModule</title>
<path fill="none" stroke="black" d="M272,-84.82C272,-102.17 272,-125.8 272,-125.8 272,-125.8 493.19,-125.8 493.19,-125.8"/>
<polygon fill="black" stroke="black" points="493.19,-129.3 503.19,-125.8 493.19,-122.3 493.19,-129.3"/>
</g>
<!-- TestSessionComponent -->
<g id="node2" class="node">
<title>TestSessionComponent</title>
<polygon fill="#ffffb3" stroke="black" points="172.21,-84.8 23.79,-84.8 23.79,-48.8 172.21,-48.8 172.21,-84.8"/>
<text text-anchor="middle" x="98" y="-62.6" font-family="Times,serif" font-size="14.00">TestSessionComponent</text>
</g>
<!-- TestSessionComponent&#45;&gt;GroupMonitorModule -->
<g id="edge2" class="edge">
<title>TestSessionComponent&#45;&gt;GroupMonitorModule</title>
<path fill="none" stroke="black" d="M98,-85.08C98,-106.12 98,-137.8 98,-137.8 98,-137.8 493.25,-137.8 493.25,-137.8"/>
<polygon fill="black" stroke="black" points="493.25,-141.3 503.25,-137.8 493.25,-134.3 493.25,-141.3"/>
</g>
<!-- GroupMonitorRoutingModule -->
<g id="node4" class="node">
<title>GroupMonitorRoutingModule</title>
<polygon fill="#8dd3c7" stroke="black" points="563.32,-84.8 560.32,-88.8 539.32,-88.8 536.32,-84.8 376.68,-84.8 376.68,-48.8 563.32,-48.8 563.32,-84.8"/>
<text text-anchor="middle" x="470" y="-62.6" font-family="Times,serif" font-size="14.00">GroupMonitorRoutingModule</text>
</g>
<!-- GroupMonitorRoutingModule&#45;&gt;GroupMonitorModule -->
<g id="edge3" class="edge">
<title>GroupMonitorRoutingModule&#45;&gt;GroupMonitorModule</title>
<path fill="none" stroke="black" d="M533.28,-84.91C533.28,-84.91 533.28,-103.79 533.28,-103.79"/>
<polygon fill="black" stroke="black" points="529.78,-103.79 533.28,-113.79 536.78,-103.79 529.78,-103.79"/>
</g>
<!-- BackendService -->
<g id="node5" class="node">
<title>BackendService</title>
<ellipse fill="#fdb462" stroke="black" cx="1020" cy="-66.8" rx="73.56" ry="18"/>
<text text-anchor="middle" x="1020" y="-62.6" font-family="Times,serif" font-size="14.00">BackendService</text>
</g>
<!-- BackendService&#45;&gt;GroupMonitorModule -->
<g id="edge4" class="edge">
<title>BackendService&#45;&gt;GroupMonitorModule</title>
<path fill="none" stroke="black" d="M1020,-85.08C1020,-106.12 1020,-137.8 1020,-137.8 1020,-137.8 654.67,-137.8 654.67,-137.8"/>
<polygon fill="black" stroke="black" points="654.67,-134.3 644.67,-137.8 654.67,-141.3 654.67,-134.3"/>
</g>
<!-- BookletService -->
<g id="node6" class="node">
<title>BookletService</title>
<ellipse fill="#fdb462" stroke="black" cx="858" cy="-66.8" rx="70.64" ry="18"/>
<text text-anchor="middle" x="858" y="-62.6" font-family="Times,serif" font-size="14.00">BookletService</text>
</g>
<!-- BookletService&#45;&gt;GroupMonitorModule -->
<g id="edge5" class="edge">
<title>BookletService&#45;&gt;GroupMonitorModule</title>
<path fill="none" stroke="black" d="M858,-84.82C858,-102.17 858,-125.8 858,-125.8 858,-125.8 654.93,-125.8 654.93,-125.8"/>
<polygon fill="black" stroke="black" points="654.93,-122.3 644.93,-125.8 654.93,-129.3 654.93,-122.3"/>
</g>
<!-- TestSessionManager -->
<g id="node7" class="node">
<title>TestSessionManager</title>
<ellipse fill="#fdb462" stroke="black" cx="678" cy="-66.8" rx="91.47" ry="18"/>
<text text-anchor="middle" x="678" y="-62.6" font-family="Times,serif" font-size="14.00">TestSessionManager</text>
</g>
<!-- TestSessionManager&#45;&gt;GroupMonitorModule -->
<g id="edge6" class="edge">
<title>TestSessionManager&#45;&gt;GroupMonitorModule</title>
<path fill="none" stroke="black" d="M615.56,-80.27C615.56,-80.27 615.56,-103.66 615.56,-103.66"/>
<polygon fill="black" stroke="black" points="612.06,-103.66 615.56,-113.66 619.06,-103.66 612.06,-103.66"/>
</g>
</g>
</svg>
