<?xml version="1.0" encoding="UTF-8" standalone="no"?>
<!DOCTYPE svg PUBLIC "-//W3C//DTD SVG 1.1//EN"
 "http://www.w3.org/Graphics/SVG/1.1/DTD/svg11.dtd">
<!-- Generated by graphviz version 2.47.0 (20210316.0004)
 -->
<!-- Title: dependencies Pages: 1 -->
<svg width="1232pt" height="211pt"
 viewBox="0.00 0.00 1232.00 211.00" xmlns="http://www.w3.org/2000/svg" xmlns:xlink="http://www.w3.org/1999/xlink">
<g id="graph0" class="graph" transform="scale(1 1) rotate(0) translate(4 207)">
<title>dependencies</title>
<polygon fill="white" stroke="transparent" points="-4,4 -4,-207 1228,-207 1228,4 -4,4"/>
<text text-anchor="start" x="591.01" y="-42.4" font-family="sans-serif" font-weight="bold" font-size="14.00">Legend</text>
<polygon fill="#ffffb3" stroke="transparent" points="378,-10 378,-30 398,-30 398,-10 378,-10"/>
<text text-anchor="start" x="401.63" y="-15.4" font-family="sans-serif" font-size="14.00"> &#160;Declarations</text>
<polygon fill="#8dd3c7" stroke="transparent" points="491,-10 491,-30 511,-30 511,-10 491,-10"/>
<text text-anchor="start" x="514.73" y="-15.4" font-family="sans-serif" font-size="14.00"> &#160;Module</text>
<polygon fill="#80b1d3" stroke="transparent" points="577,-10 577,-30 597,-30 597,-10 577,-10"/>
<text text-anchor="start" x="600.78" y="-15.4" font-family="sans-serif" font-size="14.00"> &#160;Bootstrap</text>
<polygon fill="#fdb462" stroke="transparent" points="674,-10 674,-30 694,-30 694,-10 674,-10"/>
<text text-anchor="start" x="697.67" y="-15.4" font-family="sans-serif" font-size="14.00"> &#160;Providers</text>
<polygon fill="#fb8072" stroke="transparent" points="770,-10 770,-30 790,-30 790,-10 770,-10"/>
<text text-anchor="start" x="793.73" y="-15.4" font-family="sans-serif" font-size="14.00"> &#160;Exports</text>
<g id="clust1" class="cluster">
<title>cluster_GroupMonitorModule</title>
<polygon fill="none" stroke="black" stroke-dasharray="1,5" points="8,-70 8,-195 1216,-195 1216,-70 8,-70"/>
</g>
<g id="clust2" class="cluster">
<title>cluster_GroupMonitorModule_declarations</title>
<polygon fill="none" stroke="black" points="863,-78 863,-130 1208,-130 1208,-78 863,-78"/>
</g>
<g id="clust5" class="cluster">
<title>cluster_GroupMonitorModule_imports</title>
<polygon fill="none" stroke="black" points="547,-78 547,-130 855,-130 855,-78 547,-78"/>
</g>
<g id="clust8" class="cluster">
<title>cluster_GroupMonitorModule_providers</title>
<polygon fill="none" stroke="black" points="16,-78 16,-130 539,-130 539,-78 16,-78"/>
</g>
<!-- GroupMonitorComponent -->
<g id="node1" class="node">
<title>GroupMonitorComponent</title>
<polygon fill="#ffffb3" stroke="black" points="1200.49,-122 1037.51,-122 1037.51,-86 1200.49,-86 1200.49,-122"/>
<text text-anchor="middle" x="1119" y="-99.8" font-family="Times,serif" font-size="14.00">GroupMonitorComponent</text>
</g>
<!-- GroupMonitorModule -->
<g id="node3" class="node">
<title>GroupMonitorModule</title>
<polygon fill="#8dd3c7" stroke="black" points="718.7,-187 715.7,-191 694.7,-191 691.7,-187 577.3,-187 577.3,-151 718.7,-151 718.7,-187"/>
<text text-anchor="middle" x="648" y="-164.8" font-family="Times,serif" font-size="14.00">GroupMonitorModule</text>
</g>
<!-- GroupMonitorComponent&#45;&gt;GroupMonitorModule -->
<g id="edge1" class="edge">
<title>GroupMonitorComponent&#45;&gt;GroupMonitorModule</title>
<path fill="none" stroke="black" d="M1119,-122.29C1119,-144.21 1119,-178 1119,-178 1119,-178 728.77,-178 728.77,-178"/>
<polygon fill="black" stroke="black" points="728.77,-174.5 718.77,-178 728.77,-181.5 728.77,-174.5"/>
</g>
<!-- TestSessionComponent -->
<g id="node2" class="node">
<title>TestSessionComponent</title>
<polygon fill="#ffffb3" stroke="black" points="1019.21,-122 870.79,-122 870.79,-86 1019.21,-86 1019.21,-122"/>
<text text-anchor="middle" x="945" y="-99.8" font-family="Times,serif" font-size="14.00">TestSessionComponent</text>
</g>
<!-- TestSessionComponent&#45;&gt;GroupMonitorModule -->
<g id="edge2" class="edge">
<title>TestSessionComponent&#45;&gt;GroupMonitorModule</title>
<path fill="none" stroke="black" d="M945,-122.11C945,-141.34 945,-169 945,-169 945,-169 728.76,-169 728.76,-169"/>
<polygon fill="black" stroke="black" points="728.76,-165.5 718.76,-169 728.76,-172.5 728.76,-165.5"/>
</g>
<!-- AlertModule -->
<g id="node4" class="node">
<title>AlertModule</title>
<polygon fill="#8dd3c7" stroke="black" points="847.31,-122 844.31,-126 823.31,-126 820.31,-122 758.69,-122 758.69,-86 847.31,-86 847.31,-122"/>
<text text-anchor="middle" x="803" y="-99.8" font-family="Times,serif" font-size="14.00">AlertModule</text>
</g>
<!-- AlertModule&#45;&gt;GroupMonitorModule -->
<g id="edge3" class="edge">
<title>AlertModule&#45;&gt;GroupMonitorModule</title>
<path fill="none" stroke="black" d="M803,-122.03C803,-138.4 803,-160 803,-160 803,-160 728.7,-160 728.7,-160"/>
<polygon fill="black" stroke="black" points="728.7,-156.5 718.7,-160 728.7,-163.5 728.7,-156.5"/>
</g>
<!-- GroupMonitorRoutingModule -->
<g id="node5" class="node">
<title>GroupMonitorRoutingModule</title>
<polygon fill="#8dd3c7" stroke="black" points="741.32,-122 738.32,-126 717.32,-126 714.32,-122 554.68,-122 554.68,-86 741.32,-86 741.32,-122"/>
<text text-anchor="middle" x="648" y="-99.8" font-family="Times,serif" font-size="14.00">GroupMonitorRoutingModule</text>
</g>
<!-- GroupMonitorRoutingModule&#45;&gt;GroupMonitorModule -->
<g id="edge4" class="edge">
<title>GroupMonitorRoutingModule&#45;&gt;GroupMonitorModule</title>
<path fill="none" stroke="black" d="M648,-122.11C648,-122.11 648,-140.99 648,-140.99"/>
<polygon fill="black" stroke="black" points="644.5,-140.99 648,-150.99 651.5,-140.99 644.5,-140.99"/>
</g>
<!-- BackendService -->
<g id="node6" class="node">
<title>BackendService</title>
<ellipse fill="#fdb462" stroke="black" cx="457" cy="-104" rx="73.56" ry="18"/>
<text text-anchor="middle" x="457" y="-99.8" font-family="Times,serif" font-size="14.00">BackendService</text>
</g>
<!-- BackendService&#45;&gt;GroupMonitorModule -->
<g id="edge5" class="edge">
<title>BackendService&#45;&gt;GroupMonitorModule</title>
<path fill="none" stroke="black" d="M457,-122.03C457,-138.4 457,-160 457,-160 457,-160 567.15,-160 567.15,-160"/>
<polygon fill="black" stroke="black" points="567.15,-163.5 577.15,-160 567.15,-156.5 567.15,-163.5"/>
</g>
<!-- BookletService -->
<g id="node7" class="node">
<title>BookletService</title>
<ellipse fill="#fdb462" stroke="black" cx="295" cy="-104" rx="70.64" ry="18"/>
<text text-anchor="middle" x="295" y="-99.8" font-family="Times,serif" font-size="14.00">BookletService</text>
</g>
<!-- BookletService&#45;&gt;GroupMonitorModule -->
<g id="edge6" class="edge">
<title>BookletService&#45;&gt;GroupMonitorModule</title>
<path fill="none" stroke="black" d="M295,-122.11C295,-141.34 295,-169 295,-169 295,-169 566.99,-169 566.99,-169"/>
<polygon fill="black" stroke="black" points="566.99,-172.5 576.99,-169 566.99,-165.5 566.99,-172.5"/>
</g>
<!-- TestSessionManager -->
<g id="node8" class="node">
<title>TestSessionManager</title>
<ellipse fill="#fdb462" stroke="black" cx="115" cy="-104" rx="91.47" ry="18"/>
<text text-anchor="middle" x="115" y="-99.8" font-family="Times,serif" font-size="14.00">TestSessionManager</text>
</g>
<!-- TestSessionManager&#45;&gt;GroupMonitorModule -->
<g id="edge7" class="edge">
<title>TestSessionManager&#45;&gt;GroupMonitorModule</title>
<path fill="none" stroke="black" d="M115,-122.29C115,-144.21 115,-178 115,-178 115,-178 567.22,-178 567.22,-178"/>
<polygon fill="black" stroke="black" points="567.22,-181.5 577.22,-178 567.22,-174.5 567.22,-181.5"/>
</g>
</g>
</svg>
