<?xml version="1.0" encoding="UTF-8" standalone="no"?>
<!DOCTYPE svg PUBLIC "-//W3C//DTD SVG 1.1//EN"
 "http://www.w3.org/Graphics/SVG/1.1/DTD/svg11.dtd">
<!-- Generated by graphviz version 2.47.0 (20210316.0004)
 -->
<!-- Title: dependencies Pages: 1 -->
<svg width="1126pt" height="211pt"
 viewBox="0.00 0.00 1126.00 211.00" xmlns="http://www.w3.org/2000/svg" xmlns:xlink="http://www.w3.org/1999/xlink">
<g id="graph0" class="graph" transform="scale(1 1) rotate(0) translate(4 207)">
<title>dependencies</title>
<polygon fill="white" stroke="transparent" points="-4,4 -4,-207 1122,-207 1122,4 -4,4"/>
<text text-anchor="start" x="538.01" y="-42.4" font-family="sans-serif" font-weight="bold" font-size="14.00">Legend</text>
<polygon fill="#ffffb3" stroke="transparent" points="325,-10 325,-30 345,-30 345,-10 325,-10"/>
<text text-anchor="start" x="348.63" y="-15.4" font-family="sans-serif" font-size="14.00"> &#160;Declarations</text>
<polygon fill="#8dd3c7" stroke="transparent" points="438,-10 438,-30 458,-30 458,-10 438,-10"/>
<text text-anchor="start" x="461.73" y="-15.4" font-family="sans-serif" font-size="14.00"> &#160;Module</text>
<polygon fill="#80b1d3" stroke="transparent" points="524,-10 524,-30 544,-30 544,-10 524,-10"/>
<text text-anchor="start" x="547.78" y="-15.4" font-family="sans-serif" font-size="14.00"> &#160;Bootstrap</text>
<polygon fill="#fdb462" stroke="transparent" points="621,-10 621,-30 641,-30 641,-10 621,-10"/>
<text text-anchor="start" x="644.67" y="-15.4" font-family="sans-serif" font-size="14.00"> &#160;Providers</text>
<polygon fill="#fb8072" stroke="transparent" points="717,-10 717,-30 737,-30 737,-10 717,-10"/>
<text text-anchor="start" x="740.73" y="-15.4" font-family="sans-serif" font-size="14.00"> &#160;Exports</text>
<g id="clust1" class="cluster">
<title>cluster_GroupMonitorModule</title>
<polygon fill="none" stroke="black" stroke-dasharray="1,5" points="8,-70 8,-195 1110,-195 1110,-70 8,-70"/>
</g>
<g id="clust5" class="cluster">
<title>cluster_GroupMonitorModule_imports</title>
<polygon fill="none" stroke="black" points="900,-78 900,-130 1102,-130 1102,-78 900,-78"/>
</g>
<g id="clust8" class="cluster">
<title>cluster_GroupMonitorModule_providers</title>
<polygon fill="none" stroke="black" points="369,-78 369,-130 892,-130 892,-78 369,-78"/>
</g>
<g id="clust2" class="cluster">
<title>cluster_GroupMonitorModule_declarations</title>
<polygon fill="none" stroke="black" points="16,-78 16,-130 361,-130 361,-78 16,-78"/>
</g>
<!-- GroupMonitorComponent -->
<g id="node1" class="node">
<title>GroupMonitorComponent</title>
<polygon fill="#ffffb3" stroke="black" points="353.49,-122 190.51,-122 190.51,-86 353.49,-86 353.49,-122"/>
<text text-anchor="middle" x="272" y="-99.8" font-family="Times,serif" font-size="14.00">GroupMonitorComponent</text>
</g>
<!-- GroupMonitorModule -->
<g id="node3" class="node">
<title>GroupMonitorModule</title>
<polygon fill="#8dd3c7" stroke="black" points="628.7,-187 625.7,-191 604.7,-191 601.7,-187 487.3,-187 487.3,-151 628.7,-151 628.7,-187"/>
<text text-anchor="middle" x="558" y="-164.8" font-family="Times,serif" font-size="14.00">GroupMonitorModule</text>
</g>
<!-- GroupMonitorComponent&#45;&gt;GroupMonitorModule -->
<g id="edge1" class="edge">
<title>GroupMonitorComponent&#45;&gt;GroupMonitorModule</title>
<path fill="none" stroke="black" d="M272,-122.02C272,-139.37 272,-163 272,-163 272,-163 477.3,-163 477.3,-163"/>
<polygon fill="black" stroke="black" points="477.3,-166.5 487.3,-163 477.3,-159.5 477.3,-166.5"/>
</g>
<!-- TestSessionComponent -->
<g id="node2" class="node">
<title>TestSessionComponent</title>
<polygon fill="#ffffb3" stroke="black" points="172.21,-122 23.79,-122 23.79,-86 172.21,-86 172.21,-122"/>
<text text-anchor="middle" x="98" y="-99.8" font-family="Times,serif" font-size="14.00">TestSessionComponent</text>
</g>
<!-- TestSessionComponent&#45;&gt;GroupMonitorModule -->
<g id="edge2" class="edge">
<title>TestSessionComponent&#45;&gt;GroupMonitorModule</title>
<path fill="none" stroke="black" d="M98,-122.28C98,-143.32 98,-175 98,-175 98,-175 477.38,-175 477.38,-175"/>
<polygon fill="black" stroke="black" points="477.38,-178.5 487.38,-175 477.38,-171.5 477.38,-178.5"/>
</g>
<!-- GroupMonitorRoutingModule -->
<g id="node4" class="node">
<title>GroupMonitorRoutingModule</title>
<polygon fill="#8dd3c7" stroke="black" points="1094.32,-122 1091.32,-126 1070.32,-126 1067.32,-122 907.68,-122 907.68,-86 1094.32,-86 1094.32,-122"/>
<text text-anchor="middle" x="1001" y="-99.8" font-family="Times,serif" font-size="14.00">GroupMonitorRoutingModule</text>
</g>
<!-- GroupMonitorRoutingModule&#45;&gt;GroupMonitorModule -->
<g id="edge3" class="edge">
<title>GroupMonitorRoutingModule&#45;&gt;GroupMonitorModule</title>
<path fill="none" stroke="black" d="M1001,-122.28C1001,-143.32 1001,-175 1001,-175 1001,-175 638.68,-175 638.68,-175"/>
<polygon fill="black" stroke="black" points="638.68,-171.5 628.68,-175 638.68,-178.5 638.68,-171.5"/>
</g>
<!-- BackendService -->
<g id="node5" class="node">
<title>BackendService</title>
<ellipse fill="#fdb462" stroke="black" cx="810" cy="-104" rx="73.56" ry="18"/>
<text text-anchor="middle" x="810" y="-99.8" font-family="Times,serif" font-size="14.00">BackendService</text>
</g>
<!-- BackendService&#45;&gt;GroupMonitorModule -->
<g id="edge4" class="edge">
<title>BackendService&#45;&gt;GroupMonitorModule</title>
<path fill="none" stroke="black" d="M810,-122.02C810,-139.37 810,-163 810,-163 810,-163 638.87,-163 638.87,-163"/>
<polygon fill="black" stroke="black" points="638.87,-159.5 628.87,-163 638.87,-166.5 638.87,-159.5"/>
</g>
<!-- BookletService -->
<g id="node6" class="node">
<title>BookletService</title>
<ellipse fill="#fdb462" stroke="black" cx="648" cy="-104" rx="70.64" ry="18"/>
<text text-anchor="middle" x="648" y="-99.8" font-family="Times,serif" font-size="14.00">BookletService</text>
</g>
<!-- BookletService&#45;&gt;GroupMonitorModule -->
<g id="edge5" class="edge">
<title>BookletService&#45;&gt;GroupMonitorModule</title>
<path fill="none" stroke="black" d="M603.02,-118.1C603.02,-118.1 603.02,-140.72 603.02,-140.72"/>
<polygon fill="black" stroke="black" points="599.52,-140.72 603.02,-150.72 606.52,-140.72 599.52,-140.72"/>
</g>
<!-- TestSessionManager -->
<g id="node7" class="node">
<title>TestSessionManager</title>
<ellipse fill="#fdb462" stroke="black" cx="468" cy="-104" rx="91.47" ry="18"/>
<text text-anchor="middle" x="468" y="-99.8" font-family="Times,serif" font-size="14.00">TestSessionManager</text>
</g>
<!-- TestSessionManager&#45;&gt;GroupMonitorModule -->
<g id="edge6" class="edge">
<title>TestSessionManager&#45;&gt;GroupMonitorModule</title>
<path fill="none" stroke="black" d="M523.44,-118.43C523.44,-118.43 523.44,-140.89 523.44,-140.89"/>
<polygon fill="black" stroke="black" points="519.94,-140.89 523.44,-150.89 526.94,-140.89 519.94,-140.89"/>
</g>
</g>
</svg>
