<?xml version="1.0" encoding="UTF-8" standalone="no"?>
<!DOCTYPE svg PUBLIC "-//W3C//DTD SVG 1.1//EN"
 "http://www.w3.org/Graphics/SVG/1.1/DTD/svg11.dtd">
<!-- Generated by graphviz version 2.47.3 (20210619.1520)
 -->
<!-- Title: dependencies Pages: 1 -->
<svg width="1835pt" height="247pt"
 viewBox="0.00 0.00 1835.00 246.80" xmlns="http://www.w3.org/2000/svg" xmlns:xlink="http://www.w3.org/1999/xlink">
<g id="graph0" class="graph" transform="scale(1 1) rotate(0) translate(4 242.8)">
<title>dependencies</title>
<polygon fill="white" stroke="transparent" points="-4,4 -4,-242.8 1831,-242.8 1831,4 -4,4"/>
<text text-anchor="middle" x="913.5" y="-8.2" font-family="sans-serif" font-size="14.00">dependencies</text>
<g id="clust1" class="cluster">
<title>cluster_WorkspaceModule</title>
<polygon fill="none" stroke="black" stroke-dasharray="1,5" points="8,-32.8 8,-230.8 1819,-230.8 1819,-32.8 8,-32.8"/>
</g>
<g id="clust13" class="cluster">
<title>cluster_WorkspaceModule_providers</title>
<polygon fill="none" stroke="black" points="1426,-40.8 1426,-92.8 1811,-92.8 1811,-40.8 1426,-40.8"/>
</g>
<g id="clust2" class="cluster">
<title>cluster_WorkspaceModule_declarations</title>
<polygon fill="none" stroke="black" points="208,-40.8 208,-92.8 1418,-92.8 1418,-40.8 208,-40.8"/>
</g>
<g id="clust11" class="cluster">
<title>cluster_WorkspaceModule_exports</title>
<polygon fill="none" stroke="black" points="802,-170.8 802,-222.8 966,-222.8 966,-170.8 802,-170.8"/>
</g>
<g id="clust10" class="cluster">
<title>cluster_WorkspaceModule_imports</title>
<polygon fill="none" stroke="black" points="16,-40.8 16,-92.8 200,-92.8 200,-40.8 16,-40.8"/>
</g>
<!-- FilesComponent -->
<g id="node1" class="node">
<title>FilesComponent</title>
<polygon fill="#ffffb3" stroke="black" points="1410.06,-84.8 1301.94,-84.8 1301.94,-48.8 1410.06,-48.8 1410.06,-84.8"/>
<text text-anchor="middle" x="1356" y="-62.6" font-family="Times,serif" font-size="14.00">FilesComponent</text>
</g>
<!-- WorkspaceModule -->
<g id="node8" class="node">
<title>WorkspaceModule</title>
<polygon fill="#8dd3c7" stroke="black" points="945.01,-149.8 942.01,-153.8 921.01,-153.8 918.01,-149.8 822.99,-149.8 822.99,-113.8 945.01,-113.8 945.01,-149.8"/>
<text text-anchor="middle" x="884" y="-127.6" font-family="Times,serif" font-size="14.00">WorkspaceModule</text>
</g>
<!-- FilesComponent&#45;&gt;WorkspaceModule -->
<g id="edge1" class="edge">
<title>FilesComponent&#45;&gt;WorkspaceModule</title>
<path fill="none" stroke="black" d="M1356,-85.07C1356,-103.36 1356,-128.8 1356,-128.8 1356,-128.8 955.22,-128.8 955.22,-128.8"/>
<polygon fill="black" stroke="black" points="955.22,-125.3 945.22,-128.8 955.22,-132.3 955.22,-125.3"/>
</g>
<!-- IqbFilesUploadComponent -->
<g id="node2" class="node">
<title>IqbFilesUploadComponent</title>
<polygon fill="#ffffb3" stroke="black" points="1284.43,-84.8 1115.57,-84.8 1115.57,-48.8 1284.43,-48.8 1284.43,-84.8"/>
<text text-anchor="middle" x="1200" y="-62.6" font-family="Times,serif" font-size="14.00">IqbFilesUploadComponent</text>
</g>
<!-- IqbFilesUploadComponent&#45;&gt;WorkspaceModule -->
<g id="edge2" class="edge">
<title>IqbFilesUploadComponent&#45;&gt;WorkspaceModule</title>
<path fill="none" stroke="black" d="M1200,-84.81C1200,-100.85 1200,-121.8 1200,-121.8 1200,-121.8 955.3,-121.8 955.3,-121.8"/>
<polygon fill="black" stroke="black" points="955.3,-118.3 945.3,-121.8 955.3,-125.3 955.3,-118.3"/>
</g>
<!-- IqbFilesUploadInputForDirective -->
<g id="node3" class="node">
<title>IqbFilesUploadInputForDirective</title>
<polygon fill="#ffffb3" stroke="black" points="1098.17,-84.8 893.83,-84.8 893.83,-48.8 1098.17,-48.8 1098.17,-84.8"/>
<text text-anchor="middle" x="996" y="-62.6" font-family="Times,serif" font-size="14.00">IqbFilesUploadInputForDirective</text>
</g>
<!-- IqbFilesUploadInputForDirective&#45;&gt;WorkspaceModule -->
<g id="edge3" class="edge">
<title>IqbFilesUploadInputForDirective&#45;&gt;WorkspaceModule</title>
<path fill="none" stroke="black" d="M919.59,-84.91C919.59,-84.91 919.59,-103.79 919.59,-103.79"/>
<polygon fill="black" stroke="black" points="916.09,-103.79 919.59,-113.79 923.09,-103.79 916.09,-103.79"/>
</g>
<!-- IqbFilesUploadQueueComponent -->
<g id="node4" class="node">
<title>IqbFilesUploadQueueComponent</title>
<polygon fill="#ffffb3" stroke="black" points="875.46,-84.8 670.54,-84.8 670.54,-48.8 875.46,-48.8 875.46,-84.8"/>
<text text-anchor="middle" x="773" y="-62.6" font-family="Times,serif" font-size="14.00">IqbFilesUploadQueueComponent</text>
</g>
<!-- IqbFilesUploadQueueComponent&#45;&gt;WorkspaceModule -->
<g id="edge4" class="edge">
<title>IqbFilesUploadQueueComponent&#45;&gt;WorkspaceModule</title>
<path fill="none" stroke="black" d="M849.11,-84.91C849.11,-84.91 849.11,-103.79 849.11,-103.79"/>
<polygon fill="black" stroke="black" points="845.61,-103.79 849.11,-113.79 852.61,-103.79 845.61,-103.79"/>
</g>
<!-- ResultsComponent -->
<g id="node5" class="node">
<title>ResultsComponent</title>
<polygon fill="#ffffb3" stroke="black" points="652.05,-84.8 529.95,-84.8 529.95,-48.8 652.05,-48.8 652.05,-84.8"/>
<text text-anchor="middle" x="591" y="-62.6" font-family="Times,serif" font-size="14.00">ResultsComponent</text>
</g>
<!-- ResultsComponent&#45;&gt;WorkspaceModule -->
<g id="edge5" class="edge">
<title>ResultsComponent&#45;&gt;WorkspaceModule</title>
<path fill="none" stroke="black" d="M591,-84.81C591,-100.85 591,-121.8 591,-121.8 591,-121.8 812.93,-121.8 812.93,-121.8"/>
<polygon fill="black" stroke="black" points="812.93,-125.3 822.93,-121.8 812.93,-118.3 812.93,-125.3"/>
</g>
<!-- SyscheckComponent -->
<g id="node6" class="node">
<title>SyscheckComponent</title>
<polygon fill="#ffffb3" stroke="black" points="512.2,-84.8 377.8,-84.8 377.8,-48.8 512.2,-48.8 512.2,-84.8"/>
<text text-anchor="middle" x="445" y="-62.6" font-family="Times,serif" font-size="14.00">SyscheckComponent</text>
</g>
<!-- SyscheckComponent&#45;&gt;WorkspaceModule -->
<g id="edge6" class="edge">
<title>SyscheckComponent&#45;&gt;WorkspaceModule</title>
<path fill="none" stroke="black" d="M445,-85.07C445,-103.36 445,-128.8 445,-128.8 445,-128.8 812.96,-128.8 812.96,-128.8"/>
<polygon fill="black" stroke="black" points="812.96,-132.3 822.96,-128.8 812.96,-125.3 812.96,-132.3"/>
</g>
<!-- WorkspaceComponent -->
<g id="node7" class="node">
<title>WorkspaceComponent</title>
<polygon fill="#ffffb3" stroke="black" points="360.3,-84.8 215.7,-84.8 215.7,-48.8 360.3,-48.8 360.3,-84.8"/>
<text text-anchor="middle" x="288" y="-62.6" font-family="Times,serif" font-size="14.00">WorkspaceComponent</text>
</g>
<!-- WorkspaceComponent&#45;&gt;WorkspaceModule -->
<g id="edge7" class="edge">
<title>WorkspaceComponent&#45;&gt;WorkspaceModule</title>
<path fill="none" stroke="black" d="M288,-84.93C288,-105.37 288,-135.8 288,-135.8 288,-135.8 812.74,-135.8 812.74,-135.8"/>
<polygon fill="black" stroke="black" points="812.74,-139.3 822.74,-135.8 812.74,-132.3 812.74,-139.3"/>
</g>
<!-- WorkspaceComponent  -->
<g id="node10" class="node">
<title>WorkspaceComponent </title>
<polygon fill="#fb8072" stroke="black" points="957.8,-214.8 810.2,-214.8 810.2,-178.8 957.8,-178.8 957.8,-214.8"/>
<text text-anchor="middle" x="884" y="-192.6" font-family="Times,serif" font-size="14.00">WorkspaceComponent </text>
</g>
<!-- WorkspaceModule&#45;&gt;WorkspaceComponent  -->
<g id="edge9" class="edge">
<title>WorkspaceModule&#45;&gt;WorkspaceComponent </title>
<path fill="none" stroke="black" stroke-dasharray="5,2" d="M884,-149.91C884,-149.91 884,-168.79 884,-168.79"/>
<polygon fill="black" stroke="black" points="880.5,-168.79 884,-178.79 887.5,-168.79 880.5,-168.79"/>
</g>
<!-- WorkspaceRoutingModule -->
<g id="node9" class="node">
<title>WorkspaceRoutingModule</title>
<polygon fill="#8dd3c7" stroke="black" points="191.63,-84.8 188.63,-88.8 167.63,-88.8 164.63,-84.8 24.37,-84.8 24.37,-48.8 191.63,-48.8 191.63,-84.8"/>
<text text-anchor="middle" x="108" y="-62.6" font-family="Times,serif" font-size="14.00">WorkspaceRoutingModule</text>
</g>
<!-- WorkspaceRoutingModule&#45;&gt;WorkspaceModule -->
<g id="edge8" class="edge">
<title>WorkspaceRoutingModule&#45;&gt;WorkspaceModule</title>
<path fill="none" stroke="black" d="M108,-84.81C108,-107.29 108,-142.8 108,-142.8 108,-142.8 812.78,-142.8 812.78,-142.8"/>
<polygon fill="black" stroke="black" points="812.78,-146.3 822.78,-142.8 812.78,-139.3 812.78,-146.3"/>
</g>
<!-- BackendService -->
<g id="node11" class="node">
<title>BackendService</title>
<ellipse fill="#fdb462" stroke="black" cx="1729" cy="-66.8" rx="73.56" ry="18"/>
<text text-anchor="middle" x="1729" y="-62.6" font-family="Times,serif" font-size="14.00">BackendService</text>
</g>
<!-- BackendService&#45;&gt;WorkspaceModule -->
<g id="edge10" class="edge">
<title>BackendService&#45;&gt;WorkspaceModule</title>
<path fill="none" stroke="black" d="M1729,-84.81C1729,-107.29 1729,-142.8 1729,-142.8 1729,-142.8 955.11,-142.8 955.11,-142.8"/>
<polygon fill="black" stroke="black" points="955.11,-139.3 945.11,-142.8 955.11,-146.3 955.11,-139.3"/>
</g>
<!-- WorkspaceDataService -->
<g id="node12" class="node">
<title>WorkspaceDataService</title>
<ellipse fill="#fdb462" stroke="black" cx="1536" cy="-66.8" rx="101.8" ry="18"/>
<text text-anchor="middle" x="1536" y="-62.6" font-family="Times,serif" font-size="14.00">WorkspaceDataService</text>
</g>
<!-- WorkspaceDataService&#45;&gt;WorkspaceModule -->
<g id="edge11" class="edge">
<title>WorkspaceDataService&#45;&gt;WorkspaceModule</title>
<path fill="none" stroke="black" d="M1536,-84.93C1536,-105.37 1536,-135.8 1536,-135.8 1536,-135.8 955.05,-135.8 955.05,-135.8"/>
<polygon fill="black" stroke="black" points="955.05,-132.3 945.05,-135.8 955.05,-139.3 955.05,-132.3"/>
</g>
</g>
</svg>
