<?xml version="1.0" encoding="UTF-8" standalone="no"?>
<!DOCTYPE svg PUBLIC "-//W3C//DTD SVG 1.1//EN"
 "http://www.w3.org/Graphics/SVG/1.1/DTD/svg11.dtd">
<!-- Generated by graphviz version 2.47.0 (20210316.0004)
 -->
<!-- Title: dependencies Pages: 1 -->
<svg width="1835pt" height="284pt"
 viewBox="0.00 0.00 1835.00 284.00" xmlns="http://www.w3.org/2000/svg" xmlns:xlink="http://www.w3.org/1999/xlink">
<g id="graph0" class="graph" transform="scale(1 1) rotate(0) translate(4 280)">
<title>dependencies</title>
<polygon fill="white" stroke="transparent" points="-4,4 -4,-280 1831,-280 1831,4 -4,4"/>
<text text-anchor="start" x="892.51" y="-42.4" font-family="sans-serif" font-weight="bold" font-size="14.00">Legend</text>
<polygon fill="#ffffb3" stroke="transparent" points="679.5,-10 679.5,-30 699.5,-30 699.5,-10 679.5,-10"/>
<text text-anchor="start" x="703.13" y="-15.4" font-family="sans-serif" font-size="14.00"> &#160;Declarations</text>
<polygon fill="#8dd3c7" stroke="transparent" points="792.5,-10 792.5,-30 812.5,-30 812.5,-10 792.5,-10"/>
<text text-anchor="start" x="816.23" y="-15.4" font-family="sans-serif" font-size="14.00"> &#160;Module</text>
<polygon fill="#80b1d3" stroke="transparent" points="878.5,-10 878.5,-30 898.5,-30 898.5,-10 878.5,-10"/>
<text text-anchor="start" x="902.28" y="-15.4" font-family="sans-serif" font-size="14.00"> &#160;Bootstrap</text>
<polygon fill="#fdb462" stroke="transparent" points="975.5,-10 975.5,-30 995.5,-30 995.5,-10 975.5,-10"/>
<text text-anchor="start" x="999.17" y="-15.4" font-family="sans-serif" font-size="14.00"> &#160;Providers</text>
<polygon fill="#fb8072" stroke="transparent" points="1071.5,-10 1071.5,-30 1091.5,-30 1091.5,-10 1071.5,-10"/>
<text text-anchor="start" x="1095.23" y="-15.4" font-family="sans-serif" font-size="14.00"> &#160;Exports</text>
<g id="clust1" class="cluster">
<title>cluster_WorkspaceModule</title>
<polygon fill="none" stroke="black" stroke-dasharray="1,5" points="8,-70 8,-268 1819,-268 1819,-70 8,-70"/>
</g>
<g id="clust2" class="cluster">
<title>cluster_WorkspaceModule_declarations</title>
<polygon fill="none" stroke="black" points="601,-78 601,-130 1811,-130 1811,-78 601,-78"/>
</g>
<g id="clust13" class="cluster">
<title>cluster_WorkspaceModule_providers</title>
<polygon fill="none" stroke="black" points="208,-78 208,-130 593,-130 593,-78 208,-78"/>
</g>
<g id="clust10" class="cluster">
<title>cluster_WorkspaceModule_imports</title>
<polygon fill="none" stroke="black" points="16,-78 16,-130 200,-130 200,-78 16,-78"/>
</g>
<g id="clust11" class="cluster">
<title>cluster_WorkspaceModule_exports</title>
<polygon fill="none" stroke="black" points="829,-208 829,-260 993,-260 993,-208 829,-208"/>
</g>
<!-- FilesComponent -->
<g id="node1" class="node">
<title>FilesComponent</title>
<polygon fill="#ffffb3" stroke="black" points="1803.06,-122 1694.94,-122 1694.94,-86 1803.06,-86 1803.06,-122"/>
<text text-anchor="middle" x="1749" y="-99.8" font-family="Times,serif" font-size="14.00">FilesComponent</text>
</g>
<!-- WorkspaceModule -->
<g id="node8" class="node">
<title>WorkspaceModule</title>
<polygon fill="#8dd3c7" stroke="black" points="972.01,-187 969.01,-191 948.01,-191 945.01,-187 849.99,-187 849.99,-151 972.01,-151 972.01,-187"/>
<text text-anchor="middle" x="911" y="-164.8" font-family="Times,serif" font-size="14.00">WorkspaceModule</text>
</g>
<!-- FilesComponent&#45;&gt;WorkspaceModule -->
<g id="edge1" class="edge">
<title>FilesComponent&#45;&gt;WorkspaceModule</title>
<path fill="none" stroke="black" d="M1749,-122.01C1749,-144.49 1749,-180 1749,-180 1749,-180 982.28,-180 982.28,-180"/>
<polygon fill="black" stroke="black" points="982.28,-176.5 972.28,-180 982.28,-183.5 982.28,-176.5"/>
</g>
<!-- IqbFilesUploadComponent -->
<g id="node2" class="node">
<title>IqbFilesUploadComponent</title>
<polygon fill="#ffffb3" stroke="black" points="1677.43,-122 1508.57,-122 1508.57,-86 1677.43,-86 1677.43,-122"/>
<text text-anchor="middle" x="1593" y="-99.8" font-family="Times,serif" font-size="14.00">IqbFilesUploadComponent</text>
</g>
<!-- IqbFilesUploadComponent&#45;&gt;WorkspaceModule -->
<g id="edge2" class="edge">
<title>IqbFilesUploadComponent&#45;&gt;WorkspaceModule</title>
<path fill="none" stroke="black" d="M1593,-122.13C1593,-142.57 1593,-173 1593,-173 1593,-173 982.12,-173 982.12,-173"/>
<polygon fill="black" stroke="black" points="982.12,-169.5 972.12,-173 982.12,-176.5 982.12,-169.5"/>
</g>
<!-- IqbFilesUploadInputForDirective -->
<g id="node3" class="node">
<title>IqbFilesUploadInputForDirective</title>
<polygon fill="#ffffb3" stroke="black" points="1491.17,-122 1286.83,-122 1286.83,-86 1491.17,-86 1491.17,-122"/>
<text text-anchor="middle" x="1389" y="-99.8" font-family="Times,serif" font-size="14.00">IqbFilesUploadInputForDirective</text>
</g>
<!-- IqbFilesUploadInputForDirective&#45;&gt;WorkspaceModule -->
<g id="edge3" class="edge">
<title>IqbFilesUploadInputForDirective&#45;&gt;WorkspaceModule</title>
<path fill="none" stroke="black" d="M1389,-122.27C1389,-140.56 1389,-166 1389,-166 1389,-166 982.02,-166 982.02,-166"/>
<polygon fill="black" stroke="black" points="982.02,-162.5 972.02,-166 982.02,-169.5 982.02,-162.5"/>
</g>
<!-- IqbFilesUploadQueueComponent -->
<g id="node4" class="node">
<title>IqbFilesUploadQueueComponent</title>
<polygon fill="#ffffb3" stroke="black" points="1268.46,-122 1063.54,-122 1063.54,-86 1268.46,-86 1268.46,-122"/>
<text text-anchor="middle" x="1166" y="-99.8" font-family="Times,serif" font-size="14.00">IqbFilesUploadQueueComponent</text>
</g>
<!-- IqbFilesUploadQueueComponent&#45;&gt;WorkspaceModule -->
<g id="edge4" class="edge">
<title>IqbFilesUploadQueueComponent&#45;&gt;WorkspaceModule</title>
<path fill="none" stroke="black" d="M1166,-122.01C1166,-138.05 1166,-159 1166,-159 1166,-159 982.08,-159 982.08,-159"/>
<polygon fill="black" stroke="black" points="982.08,-155.5 972.08,-159 982.08,-162.5 982.08,-155.5"/>
</g>
<!-- ResultsComponent -->
<g id="node5" class="node">
<title>ResultsComponent</title>
<polygon fill="#ffffb3" stroke="black" points="1045.05,-122 922.95,-122 922.95,-86 1045.05,-86 1045.05,-122"/>
<text text-anchor="middle" x="984" y="-99.8" font-family="Times,serif" font-size="14.00">ResultsComponent</text>
</g>
<!-- ResultsComponent&#45;&gt;WorkspaceModule -->
<g id="edge5" class="edge">
<title>ResultsComponent&#45;&gt;WorkspaceModule</title>
<path fill="none" stroke="black" d="M947.49,-122.11C947.49,-122.11 947.49,-140.99 947.49,-140.99"/>
<polygon fill="black" stroke="black" points="943.99,-140.99 947.49,-150.99 950.99,-140.99 943.99,-140.99"/>
</g>
<!-- SyscheckComponent -->
<g id="node6" class="node">
<title>SyscheckComponent</title>
<polygon fill="#ffffb3" stroke="black" points="905.2,-122 770.8,-122 770.8,-86 905.2,-86 905.2,-122"/>
<text text-anchor="middle" x="838" y="-99.8" font-family="Times,serif" font-size="14.00">SyscheckComponent</text>
</g>
<!-- SyscheckComponent&#45;&gt;WorkspaceModule -->
<g id="edge6" class="edge">
<title>SyscheckComponent&#45;&gt;WorkspaceModule</title>
<path fill="none" stroke="black" d="M877.42,-122.11C877.42,-122.11 877.42,-140.99 877.42,-140.99"/>
<polygon fill="black" stroke="black" points="873.92,-140.99 877.42,-150.99 880.92,-140.99 873.92,-140.99"/>
</g>
<!-- WorkspaceComponent -->
<g id="node7" class="node">
<title>WorkspaceComponent</title>
<polygon fill="#ffffb3" stroke="black" points="753.3,-122 608.7,-122 608.7,-86 753.3,-86 753.3,-122"/>
<text text-anchor="middle" x="681" y="-99.8" font-family="Times,serif" font-size="14.00">WorkspaceComponent</text>
</g>
<!-- WorkspaceComponent&#45;&gt;WorkspaceModule -->
<g id="edge7" class="edge">
<title>WorkspaceComponent&#45;&gt;WorkspaceModule</title>
<path fill="none" stroke="black" d="M681,-122.01C681,-138.05 681,-159 681,-159 681,-159 839.97,-159 839.97,-159"/>
<polygon fill="black" stroke="black" points="839.97,-162.5 849.97,-159 839.97,-155.5 839.97,-162.5"/>
</g>
<!-- WorkspaceComponent  -->
<g id="node10" class="node">
<title>WorkspaceComponent </title>
<polygon fill="#fb8072" stroke="black" points="984.8,-252 837.2,-252 837.2,-216 984.8,-216 984.8,-252"/>
<text text-anchor="middle" x="911" y="-229.8" font-family="Times,serif" font-size="14.00">WorkspaceComponent </text>
</g>
<!-- WorkspaceModule&#45;&gt;WorkspaceComponent  -->
<g id="edge9" class="edge">
<title>WorkspaceModule&#45;&gt;WorkspaceComponent </title>
<path fill="none" stroke="black" stroke-dasharray="5,2" d="M911,-187.11C911,-187.11 911,-205.99 911,-205.99"/>
<polygon fill="black" stroke="black" points="907.5,-205.99 911,-215.99 914.5,-205.99 907.5,-205.99"/>
</g>
<!-- WorkspaceRoutingModule -->
<g id="node9" class="node">
<title>WorkspaceRoutingModule</title>
<polygon fill="#8dd3c7" stroke="black" points="191.63,-122 188.63,-126 167.63,-126 164.63,-122 24.37,-122 24.37,-86 191.63,-86 191.63,-122"/>
<text text-anchor="middle" x="108" y="-99.8" font-family="Times,serif" font-size="14.00">WorkspaceRoutingModule</text>
</g>
<!-- WorkspaceRoutingModule&#45;&gt;WorkspaceModule -->
<g id="edge8" class="edge">
<title>WorkspaceRoutingModule&#45;&gt;WorkspaceModule</title>
<path fill="none" stroke="black" d="M108,-122.01C108,-144.49 108,-180 108,-180 108,-180 839.99,-180 839.99,-180"/>
<polygon fill="black" stroke="black" points="839.99,-183.5 849.99,-180 839.99,-176.5 839.99,-183.5"/>
</g>
<!-- BackendService -->
<g id="node11" class="node">
<title>BackendService</title>
<ellipse fill="#fdb462" stroke="black" cx="511" cy="-104" rx="73.56" ry="18"/>
<text text-anchor="middle" x="511" y="-99.8" font-family="Times,serif" font-size="14.00">BackendService</text>
</g>
<!-- BackendService&#45;&gt;WorkspaceModule -->
<g id="edge10" class="edge">
<title>BackendService&#45;&gt;WorkspaceModule</title>
<path fill="none" stroke="black" d="M511,-122.27C511,-140.56 511,-166 511,-166 511,-166 839.81,-166 839.81,-166"/>
<polygon fill="black" stroke="black" points="839.81,-169.5 849.81,-166 839.81,-162.5 839.81,-169.5"/>
</g>
<!-- WorkspaceDataService -->
<g id="node12" class="node">
<title>WorkspaceDataService</title>
<ellipse fill="#fdb462" stroke="black" cx="318" cy="-104" rx="101.8" ry="18"/>
<text text-anchor="middle" x="318" y="-99.8" font-family="Times,serif" font-size="14.00">WorkspaceDataService</text>
</g>
<!-- WorkspaceDataService&#45;&gt;WorkspaceModule -->
<g id="edge11" class="edge">
<title>WorkspaceDataService&#45;&gt;WorkspaceModule</title>
<path fill="none" stroke="black" d="M318,-122.13C318,-142.57 318,-173 318,-173 318,-173 839.77,-173 839.77,-173"/>
<polygon fill="black" stroke="black" points="839.77,-176.5 849.77,-173 839.77,-169.5 839.77,-176.5"/>
</g>
</g>
</svg>
