<?xml version="1.0" encoding="UTF-8" standalone="no"?>
<!DOCTYPE svg PUBLIC "-//W3C//DTD SVG 1.1//EN"
 "http://www.w3.org/Graphics/SVG/1.1/DTD/svg11.dtd">
<!-- Generated by graphviz version 2.47.0 (20210316.0004)
 -->
<!-- Title: dependencies Pages: 1 -->
<svg width="1434pt" height="284pt"
 viewBox="0.00 0.00 1434.00 284.00" xmlns="http://www.w3.org/2000/svg" xmlns:xlink="http://www.w3.org/1999/xlink">
<g id="graph0" class="graph" transform="scale(1 1) rotate(0) translate(4 280)">
<title>dependencies</title>
<polygon fill="white" stroke="transparent" points="-4,4 -4,-280 1430,-280 1430,4 -4,4"/>
<text text-anchor="start" x="692.01" y="-42.4" font-family="sans-serif" font-weight="bold" font-size="14.00">Legend</text>
<polygon fill="#ffffb3" stroke="transparent" points="479,-10 479,-30 499,-30 499,-10 479,-10"/>
<text text-anchor="start" x="502.63" y="-15.4" font-family="sans-serif" font-size="14.00"> &#160;Declarations</text>
<polygon fill="#8dd3c7" stroke="transparent" points="592,-10 592,-30 612,-30 612,-10 592,-10"/>
<text text-anchor="start" x="615.73" y="-15.4" font-family="sans-serif" font-size="14.00"> &#160;Module</text>
<polygon fill="#80b1d3" stroke="transparent" points="678,-10 678,-30 698,-30 698,-10 678,-10"/>
<text text-anchor="start" x="701.78" y="-15.4" font-family="sans-serif" font-size="14.00"> &#160;Bootstrap</text>
<polygon fill="#fdb462" stroke="transparent" points="775,-10 775,-30 795,-30 795,-10 775,-10"/>
<text text-anchor="start" x="798.67" y="-15.4" font-family="sans-serif" font-size="14.00"> &#160;Providers</text>
<polygon fill="#fb8072" stroke="transparent" points="871,-10 871,-30 891,-30 891,-10 871,-10"/>
<text text-anchor="start" x="894.73" y="-15.4" font-family="sans-serif" font-size="14.00"> &#160;Exports</text>
<g id="clust1" class="cluster">
<title>cluster_WorkspaceModule</title>
<polygon fill="none" stroke="black" stroke-dasharray="1,5" points="8,-70 8,-268 1418,-268 1418,-70 8,-70"/>
</g>
<g id="clust2" class="cluster">
<title>cluster_WorkspaceModule_declarations</title>
<polygon fill="none" stroke="black" points="831,-78 831,-130 1410,-130 1410,-78 831,-78"/>
</g>
<g id="clust8" class="cluster">
<title>cluster_WorkspaceModule_exports</title>
<polygon fill="none" stroke="black" points="689,-208 689,-260 853,-260 853,-208 689,-208"/>
</g>
<g id="clust7" class="cluster">
<title>cluster_WorkspaceModule_imports</title>
<polygon fill="none" stroke="black" points="409,-78 409,-130 823,-130 823,-78 409,-78"/>
</g>
<g id="clust10" class="cluster">
<title>cluster_WorkspaceModule_providers</title>
<polygon fill="none" stroke="black" points="16,-78 16,-130 401,-130 401,-78 16,-78"/>
</g>
<!-- FilesComponent -->
<g id="node1" class="node">
<title>FilesComponent</title>
<polygon fill="#ffffb3" stroke="black" points="1402.06,-122 1293.94,-122 1293.94,-86 1402.06,-86 1402.06,-122"/>
<text text-anchor="middle" x="1348" y="-99.8" font-family="Times,serif" font-size="14.00">FilesComponent</text>
</g>
<!-- WorkspaceModule -->
<g id="node5" class="node">
<title>WorkspaceModule</title>
<polygon fill="#8dd3c7" stroke="black" points="832.01,-187 829.01,-191 808.01,-191 805.01,-187 709.99,-187 709.99,-151 832.01,-151 832.01,-187"/>
<text text-anchor="middle" x="771" y="-164.8" font-family="Times,serif" font-size="14.00">WorkspaceModule</text>
</g>
<!-- FilesComponent&#45;&gt;WorkspaceModule -->
<g id="edge1" class="edge">
<title>FilesComponent&#45;&gt;WorkspaceModule</title>
<path fill="none" stroke="black" d="M1348,-122.29C1348,-144.21 1348,-178 1348,-178 1348,-178 842.2,-178 842.2,-178"/>
<polygon fill="black" stroke="black" points="842.2,-174.5 832.2,-178 842.2,-181.5 842.2,-174.5"/>
</g>
<!-- ResultsComponent -->
<g id="node2" class="node">
<title>ResultsComponent</title>
<polygon fill="#ffffb3" stroke="black" points="1275.05,-122 1152.95,-122 1152.95,-86 1275.05,-86 1275.05,-122"/>
<text text-anchor="middle" x="1214" y="-99.8" font-family="Times,serif" font-size="14.00">ResultsComponent</text>
</g>
<!-- ResultsComponent&#45;&gt;WorkspaceModule -->
<g id="edge2" class="edge">
<title>ResultsComponent&#45;&gt;WorkspaceModule</title>
<path fill="none" stroke="black" d="M1214,-122.11C1214,-141.34 1214,-169 1214,-169 1214,-169 842.13,-169 842.13,-169"/>
<polygon fill="black" stroke="black" points="842.13,-165.5 832.13,-169 842.13,-172.5 842.13,-165.5"/>
</g>
<!-- SyscheckComponent -->
<g id="node3" class="node">
<title>SyscheckComponent</title>
<polygon fill="#ffffb3" stroke="black" points="1135.2,-122 1000.8,-122 1000.8,-86 1135.2,-86 1135.2,-122"/>
<text text-anchor="middle" x="1068" y="-99.8" font-family="Times,serif" font-size="14.00">SyscheckComponent</text>
</g>
<!-- SyscheckComponent&#45;&gt;WorkspaceModule -->
<g id="edge3" class="edge">
<title>SyscheckComponent&#45;&gt;WorkspaceModule</title>
<path fill="none" stroke="black" d="M1068,-122.03C1068,-138.4 1068,-160 1068,-160 1068,-160 842.18,-160 842.18,-160"/>
<polygon fill="black" stroke="black" points="842.18,-156.5 832.18,-160 842.18,-163.5 842.18,-156.5"/>
</g>
<!-- WorkspaceComponent -->
<g id="node4" class="node">
<title>WorkspaceComponent</title>
<polygon fill="#ffffb3" stroke="black" points="983.3,-122 838.7,-122 838.7,-86 983.3,-86 983.3,-122"/>
<text text-anchor="middle" x="911" y="-99.8" font-family="Times,serif" font-size="14.00">WorkspaceComponent</text>
</g>
<!-- WorkspaceComponent&#45;&gt;WorkspaceModule -->
<g id="edge4" class="edge">
<title>WorkspaceComponent&#45;&gt;WorkspaceModule</title>
<path fill="none" stroke="black" d="M838.51,-104C829.69,-104 823.71,-104 823.71,-104 823.71,-104 823.71,-140.89 823.71,-140.89"/>
<polygon fill="black" stroke="black" points="820.21,-140.89 823.71,-150.89 827.21,-140.89 820.21,-140.89"/>
</g>
<!-- WorkspaceComponent  -->
<g id="node9" class="node">
<title>WorkspaceComponent </title>
<polygon fill="#fb8072" stroke="black" points="844.8,-252 697.2,-252 697.2,-216 844.8,-216 844.8,-252"/>
<text text-anchor="middle" x="771" y="-229.8" font-family="Times,serif" font-size="14.00">WorkspaceComponent </text>
</g>
<!-- WorkspaceModule&#45;&gt;WorkspaceComponent  -->
<g id="edge8" class="edge">
<title>WorkspaceModule&#45;&gt;WorkspaceComponent </title>
<path fill="none" stroke="black" stroke-dasharray="5,2" d="M771,-187.11C771,-187.11 771,-205.99 771,-205.99"/>
<polygon fill="black" stroke="black" points="767.5,-205.99 771,-215.99 774.5,-205.99 767.5,-205.99"/>
</g>
<!-- AlertModule -->
<g id="node6" class="node">
<title>AlertModule</title>
<polygon fill="#8dd3c7" stroke="black" points="815.31,-122 812.31,-126 791.31,-126 788.31,-122 726.69,-122 726.69,-86 815.31,-86 815.31,-122"/>
<text text-anchor="middle" x="771" y="-99.8" font-family="Times,serif" font-size="14.00">AlertModule</text>
</g>
<!-- AlertModule&#45;&gt;WorkspaceModule -->
<g id="edge5" class="edge">
<title>AlertModule&#45;&gt;WorkspaceModule</title>
<path fill="none" stroke="black" d="M771,-122.11C771,-122.11 771,-140.99 771,-140.99"/>
<polygon fill="black" stroke="black" points="767.5,-140.99 771,-150.99 774.5,-140.99 767.5,-140.99"/>
</g>
<!-- IqbFilesModule -->
<g id="node7" class="node">
<title>IqbFilesModule</title>
<polygon fill="#8dd3c7" stroke="black" points="708.93,-122 705.93,-126 684.93,-126 681.93,-122 603.07,-122 603.07,-86 708.93,-86 708.93,-122"/>
<text text-anchor="middle" x="656" y="-99.8" font-family="Times,serif" font-size="14.00">IqbFilesModule</text>
</g>
<!-- IqbFilesModule&#45;&gt;WorkspaceModule -->
<g id="edge6" class="edge">
<title>IqbFilesModule&#45;&gt;WorkspaceModule</title>
<path fill="none" stroke="black" d="M702.91,-122.01C702.91,-138.05 702.91,-159 702.91,-159 702.91,-159 703.61,-159 703.61,-159"/>
<polygon fill="black" stroke="black" points="699.94,-162.5 709.94,-159 699.94,-155.5 699.94,-162.5"/>
</g>
<!-- WorkspaceRoutingModule -->
<g id="node8" class="node">
<title>WorkspaceRoutingModule</title>
<polygon fill="#8dd3c7" stroke="black" points="584.63,-122 581.63,-126 560.63,-126 557.63,-122 417.37,-122 417.37,-86 584.63,-86 584.63,-122"/>
<text text-anchor="middle" x="501" y="-99.8" font-family="Times,serif" font-size="14.00">WorkspaceRoutingModule</text>
</g>
<!-- WorkspaceRoutingModule&#45;&gt;WorkspaceModule -->
<g id="edge7" class="edge">
<title>WorkspaceRoutingModule&#45;&gt;WorkspaceModule</title>
<path fill="none" stroke="black" d="M501,-122.27C501,-140.56 501,-166 501,-166 501,-166 699.73,-166 699.73,-166"/>
<polygon fill="black" stroke="black" points="699.73,-169.5 709.73,-166 699.73,-162.5 699.73,-169.5"/>
</g>
<!-- BackendService -->
<g id="node10" class="node">
<title>BackendService</title>
<ellipse fill="#fdb462" stroke="black" cx="319" cy="-104" rx="73.56" ry="18"/>
<text text-anchor="middle" x="319" y="-99.8" font-family="Times,serif" font-size="14.00">BackendService</text>
</g>
<!-- BackendService&#45;&gt;WorkspaceModule -->
<g id="edge9" class="edge">
<title>BackendService&#45;&gt;WorkspaceModule</title>
<path fill="none" stroke="black" d="M319,-122.13C319,-142.57 319,-173 319,-173 319,-173 699.57,-173 699.57,-173"/>
<polygon fill="black" stroke="black" points="699.57,-176.5 709.57,-173 699.57,-169.5 699.57,-176.5"/>
</g>
<!-- WorkspaceDataService -->
<g id="node11" class="node">
<title>WorkspaceDataService</title>
<ellipse fill="#fdb462" stroke="black" cx="126" cy="-104" rx="101.8" ry="18"/>
<text text-anchor="middle" x="126" y="-99.8" font-family="Times,serif" font-size="14.00">WorkspaceDataService</text>
</g>
<!-- WorkspaceDataService&#45;&gt;WorkspaceModule -->
<g id="edge10" class="edge">
<title>WorkspaceDataService&#45;&gt;WorkspaceModule</title>
<path fill="none" stroke="black" d="M126,-122.01C126,-144.49 126,-180 126,-180 126,-180 699.74,-180 699.74,-180"/>
<polygon fill="black" stroke="black" points="699.74,-183.5 709.74,-180 699.74,-176.5 699.74,-183.5"/>
</g>
</g>
</svg>
