<?xml version="1.0" encoding="UTF-8" standalone="no"?>
<!DOCTYPE svg PUBLIC "-//W3C//DTD SVG 1.1//EN"
 "http://www.w3.org/Graphics/SVG/1.1/DTD/svg11.dtd">
<!-- Generated by graphviz version 2.47.3 (20210619.1520)
 -->
<!-- Title: dependencies Pages: 1 -->
<svg width="2325pt" height="247pt"
 viewBox="0.00 0.00 2325.00 246.80" xmlns="http://www.w3.org/2000/svg" xmlns:xlink="http://www.w3.org/1999/xlink">
<g id="graph0" class="graph" transform="scale(1 1) rotate(0) translate(4 242.8)">
<title>dependencies</title>
<polygon fill="white" stroke="transparent" points="-4,4 -4,-242.8 2321,-242.8 2321,4 -4,4"/>
<text text-anchor="middle" x="1158.5" y="-8.2" font-family="sans-serif" font-size="14.00">dependencies</text>
<g id="clust1" class="cluster">
<title>cluster_AppModule</title>
<polygon fill="none" stroke="black" stroke-dasharray="1,5" points="8,-32.8 8,-230.8 2309,-230.8 2309,-32.8 8,-32.8"/>
</g>
<g id="clust16" class="cluster">
<title>cluster_AppModule_bootstrap</title>
<polygon fill="none" stroke="black" points="1145,-170.8 1145,-222.8 1269,-222.8 1269,-170.8 1145,-170.8"/>
</g>
<g id="clust2" class="cluster">
<title>cluster_AppModule_declarations</title>
<polygon fill="none" stroke="black" points="503,-40.8 503,-92.8 2301,-92.8 2301,-40.8 503,-40.8"/>
</g>
<g id="clust17" class="cluster">
<title>cluster_AppModule_providers</title>
<polygon fill="none" stroke="black" points="168,-40.8 168,-92.8 495,-92.8 495,-40.8 168,-40.8"/>
</g>
<g id="clust14" class="cluster">
<title>cluster_AppModule_imports</title>
<polygon fill="none" stroke="black" points="16,-40.8 16,-92.8 160,-92.8 160,-40.8 16,-40.8"/>
</g>
<!-- AdminStarterComponent -->
<g id="node1" class="node">
<title>AdminStarterComponent</title>
<polygon fill="#ffffb3" stroke="black" points="2292.54,-84.8 2135.46,-84.8 2135.46,-48.8 2292.54,-48.8 2292.54,-84.8"/>
<text text-anchor="middle" x="2214" y="-62.6" font-family="Times,serif" font-size="14.00">AdminStarterComponent</text>
</g>
<!-- AppModule -->
<g id="node12" class="node">
<title>AppModule</title>
<polygon fill="#8dd3c7" stroke="black" points="1248.66,-149.8 1245.66,-153.8 1224.66,-153.8 1221.66,-149.8 1165.34,-149.8 1165.34,-113.8 1248.66,-113.8 1248.66,-149.8"/>
<text text-anchor="middle" x="1207" y="-127.6" font-family="Times,serif" font-size="14.00">AppModule</text>
</g>
<!-- AdminStarterComponent&#45;&gt;AppModule -->
<g id="edge1" class="edge">
<title>AdminStarterComponent&#45;&gt;AppModule</title>
<path fill="none" stroke="black" d="M2214,-84.89C2214,-107.93 2214,-144.8 2214,-144.8 2214,-144.8 1258.67,-144.8 1258.67,-144.8"/>
<polygon fill="black" stroke="black" points="1258.67,-141.3 1248.67,-144.8 1258.67,-148.3 1258.67,-141.3"/>
</g>
<!-- AppComponent -->
<g id="node2" class="node">
<title>AppComponent</title>
<polygon fill="#ffffb3" stroke="black" points="2117.94,-84.8 2012.06,-84.8 2012.06,-48.8 2117.94,-48.8 2117.94,-84.8"/>
<text text-anchor="middle" x="2065" y="-62.6" font-family="Times,serif" font-size="14.00">AppComponent</text>
</g>
<!-- AppComponent&#45;&gt;AppModule -->
<g id="edge2" class="edge">
<title>AppComponent&#45;&gt;AppModule</title>
<path fill="none" stroke="black" d="M2065,-84.84C2065,-106.46 2065,-139.8 2065,-139.8 2065,-139.8 1258.67,-139.8 1258.67,-139.8"/>
<polygon fill="black" stroke="black" points="1258.67,-136.3 1248.67,-139.8 1258.67,-143.3 1258.67,-136.3"/>
</g>
<!-- AppRootComponent -->
<g id="node3" class="node">
<title>AppRootComponent</title>
<polygon fill="#ffffb3" stroke="black" points="1994.17,-84.8 1861.83,-84.8 1861.83,-48.8 1994.17,-48.8 1994.17,-84.8"/>
<text text-anchor="middle" x="1928" y="-62.6" font-family="Times,serif" font-size="14.00">AppRootComponent</text>
</g>
<!-- AppRootComponent&#45;&gt;AppModule -->
<g id="edge3" class="edge">
<title>AppRootComponent&#45;&gt;AppModule</title>
<path fill="none" stroke="black" d="M1928,-85.02C1928,-105.17 1928,-134.8 1928,-134.8 1928,-134.8 1258.88,-134.8 1258.88,-134.8"/>
<polygon fill="black" stroke="black" points="1258.88,-131.3 1248.88,-134.8 1258.88,-138.3 1258.88,-131.3"/>
</g>
<!-- CodeInputComponent -->
<g id="node4" class="node">
<title>CodeInputComponent</title>
<polygon fill="#ffffb3" stroke="black" points="1843.44,-84.8 1702.56,-84.8 1702.56,-48.8 1843.44,-48.8 1843.44,-84.8"/>
<text text-anchor="middle" x="1773" y="-62.6" font-family="Times,serif" font-size="14.00">CodeInputComponent</text>
</g>
<!-- CodeInputComponent&#45;&gt;AppModule -->
<g id="edge4" class="edge">
<title>CodeInputComponent&#45;&gt;AppModule</title>
<path fill="none" stroke="black" d="M1773,-85.02C1773,-103.63 1773,-129.8 1773,-129.8 1773,-129.8 1259.08,-129.8 1259.08,-129.8"/>
<polygon fill="black" stroke="black" points="1259.08,-126.3 1249.08,-129.8 1259.08,-133.3 1259.08,-126.3"/>
</g>
<!-- LegalNoticeComponent -->
<g id="node5" class="node">
<title>LegalNoticeComponent</title>
<polygon fill="#ffffb3" stroke="black" points="1685.02,-84.8 1534.98,-84.8 1534.98,-48.8 1685.02,-48.8 1685.02,-84.8"/>
<text text-anchor="middle" x="1610" y="-62.6" font-family="Times,serif" font-size="14.00">LegalNoticeComponent</text>
</g>
<!-- LegalNoticeComponent&#45;&gt;AppModule -->
<g id="edge5" class="edge">
<title>LegalNoticeComponent&#45;&gt;AppModule</title>
<path fill="none" stroke="black" d="M1610,-84.83C1610,-101.86 1610,-124.8 1610,-124.8 1610,-124.8 1258.99,-124.8 1258.99,-124.8"/>
<polygon fill="black" stroke="black" points="1258.99,-121.3 1248.99,-124.8 1258.99,-128.3 1258.99,-121.3"/>
</g>
<!-- LoginComponent -->
<g id="node6" class="node">
<title>LoginComponent</title>
<polygon fill="#ffffb3" stroke="black" points="1516.28,-84.8 1401.72,-84.8 1401.72,-48.8 1516.28,-48.8 1516.28,-84.8"/>
<text text-anchor="middle" x="1459" y="-62.6" font-family="Times,serif" font-size="14.00">LoginComponent</text>
</g>
<!-- LoginComponent&#45;&gt;AppModule -->
<g id="edge6" class="edge">
<title>LoginComponent&#45;&gt;AppModule</title>
<path fill="none" stroke="black" d="M1459,-85.04C1459,-100.37 1459,-119.8 1459,-119.8 1459,-119.8 1258.9,-119.8 1258.9,-119.8"/>
<polygon fill="black" stroke="black" points="1258.9,-116.3 1248.9,-119.8 1258.9,-123.3 1258.9,-116.3"/>
</g>
<!-- MonitorStarterComponent -->
<g id="node7" class="node">
<title>MonitorStarterComponent</title>
<polygon fill="#ffffb3" stroke="black" points="1383.03,-84.8 1218.97,-84.8 1218.97,-48.8 1383.03,-48.8 1383.03,-84.8"/>
<text text-anchor="middle" x="1301" y="-62.6" font-family="Times,serif" font-size="14.00">MonitorStarterComponent</text>
</g>
<!-- MonitorStarterComponent&#45;&gt;AppModule -->
<g id="edge7" class="edge">
<title>MonitorStarterComponent&#45;&gt;AppModule</title>
<path fill="none" stroke="black" d="M1233.78,-84.91C1233.78,-84.91 1233.78,-103.79 1233.78,-103.79"/>
<polygon fill="black" stroke="black" points="1230.28,-103.79 1233.78,-113.79 1237.28,-103.79 1230.28,-103.79"/>
</g>
<!-- RouteDispatcherComponent -->
<g id="node8" class="node">
<title>RouteDispatcherComponent</title>
<polygon fill="#ffffb3" stroke="black" points="1200.91,-84.8 1025.09,-84.8 1025.09,-48.8 1200.91,-48.8 1200.91,-84.8"/>
<text text-anchor="middle" x="1113" y="-62.6" font-family="Times,serif" font-size="14.00">RouteDispatcherComponent</text>
</g>
<!-- RouteDispatcherComponent&#45;&gt;AppModule -->
<g id="edge8" class="edge">
<title>RouteDispatcherComponent&#45;&gt;AppModule</title>
<path fill="none" stroke="black" d="M1182.94,-84.91C1182.94,-84.91 1182.94,-103.79 1182.94,-103.79"/>
<polygon fill="black" stroke="black" points="1179.44,-103.79 1182.94,-113.79 1186.44,-103.79 1179.44,-103.79"/>
</g>
<!-- StatusCardComponent -->
<g id="node9" class="node">
<title>StatusCardComponent</title>
<polygon fill="#ffffb3" stroke="black" points="1007.27,-84.8 864.73,-84.8 864.73,-48.8 1007.27,-48.8 1007.27,-84.8"/>
<text text-anchor="middle" x="936" y="-62.6" font-family="Times,serif" font-size="14.00">StatusCardComponent</text>
</g>
<!-- StatusCardComponent&#45;&gt;AppModule -->
<g id="edge9" class="edge">
<title>StatusCardComponent&#45;&gt;AppModule</title>
<path fill="none" stroke="black" d="M936,-85.04C936,-100.37 936,-119.8 936,-119.8 936,-119.8 1155.25,-119.8 1155.25,-119.8"/>
<polygon fill="black" stroke="black" points="1155.25,-123.3 1165.25,-119.8 1155.25,-116.3 1155.25,-123.3"/>
</g>
<!-- SysCheckStarterComponent -->
<g id="node10" class="node">
<title>SysCheckStarterComponent</title>
<polygon fill="#ffffb3" stroke="black" points="846.14,-84.8 671.86,-84.8 671.86,-48.8 846.14,-48.8 846.14,-84.8"/>
<text text-anchor="middle" x="759" y="-62.6" font-family="Times,serif" font-size="14.00">SysCheckStarterComponent</text>
</g>
<!-- SysCheckStarterComponent&#45;&gt;AppModule -->
<g id="edge10" class="edge">
<title>SysCheckStarterComponent&#45;&gt;AppModule</title>
<path fill="none" stroke="black" d="M759,-84.83C759,-101.86 759,-124.8 759,-124.8 759,-124.8 1155.26,-124.8 1155.26,-124.8"/>
<polygon fill="black" stroke="black" points="1155.26,-128.3 1165.26,-124.8 1155.26,-121.3 1155.26,-128.3"/>
</g>
<!-- TestStarterComponent -->
<g id="node11" class="node">
<title>TestStarterComponent</title>
<polygon fill="#ffffb3" stroke="black" points="653.25,-84.8 510.75,-84.8 510.75,-48.8 653.25,-48.8 653.25,-84.8"/>
<text text-anchor="middle" x="582" y="-62.6" font-family="Times,serif" font-size="14.00">TestStarterComponent</text>
</g>
<!-- TestStarterComponent&#45;&gt;AppModule -->
<g id="edge11" class="edge">
<title>TestStarterComponent&#45;&gt;AppModule</title>
<path fill="none" stroke="black" d="M582,-85.02C582,-103.63 582,-129.8 582,-129.8 582,-129.8 1155.02,-129.8 1155.02,-129.8"/>
<polygon fill="black" stroke="black" points="1155.02,-133.3 1165.02,-129.8 1155.02,-126.3 1155.02,-133.3"/>
</g>
<!-- AppComponent  -->
<g id="node14" class="node">
<title>AppComponent </title>
<polygon fill="#80b1d3" stroke="black" points="1261.44,-214.8 1152.56,-214.8 1152.56,-178.8 1261.44,-178.8 1261.44,-214.8"/>
<text text-anchor="middle" x="1207" y="-192.6" font-family="Times,serif" font-size="14.00">AppComponent </text>
</g>
<!-- AppModule&#45;&gt;AppComponent  -->
<g id="edge13" class="edge">
<title>AppModule&#45;&gt;AppComponent </title>
<path fill="none" stroke="black" stroke-dasharray="1,5" d="M1207,-149.91C1207,-149.91 1207,-168.79 1207,-168.79"/>
<polygon fill="black" stroke="black" points="1203.5,-168.79 1207,-178.79 1210.5,-168.79 1203.5,-168.79"/>
</g>
<!-- AppRoutingModule -->
<g id="node13" class="node">
<title>AppRoutingModule</title>
<polygon fill="#8dd3c7" stroke="black" points="152.27,-84.8 149.27,-88.8 128.27,-88.8 125.27,-84.8 23.73,-84.8 23.73,-48.8 152.27,-48.8 152.27,-84.8"/>
<text text-anchor="middle" x="88" y="-62.6" font-family="Times,serif" font-size="14.00">AppRoutingModule</text>
</g>
<!-- AppRoutingModule&#45;&gt;AppModule -->
<g id="edge12" class="edge">
<title>AppRoutingModule&#45;&gt;AppModule</title>
<path fill="none" stroke="black" d="M88,-84.89C88,-107.93 88,-144.8 88,-144.8 88,-144.8 1155.18,-144.8 1155.18,-144.8"/>
<polygon fill="black" stroke="black" points="1155.18,-148.3 1165.18,-144.8 1155.18,-141.3 1155.18,-148.3"/>
</g>
<!-- AuthInterceptor -->
<g id="node15" class="node">
<title>AuthInterceptor</title>
<ellipse fill="#fdb462" stroke="black" cx="414" cy="-66.8" rx="72.91" ry="18"/>
<text text-anchor="middle" x="414" y="-62.6" font-family="Times,serif" font-size="14.00">AuthInterceptor</text>
</g>
<!-- AuthInterceptor&#45;&gt;AppModule -->
<g id="edge14" class="edge">
<title>AuthInterceptor&#45;&gt;AppModule</title>
<path fill="none" stroke="black" d="M414,-85.02C414,-105.17 414,-134.8 414,-134.8 414,-134.8 1155.2,-134.8 1155.2,-134.8"/>
<polygon fill="black" stroke="black" points="1155.2,-138.3 1165.2,-134.8 1155.2,-131.3 1155.2,-138.3"/>
</g>
<!-- BackendService -->
<g id="node16" class="node">
<title>BackendService</title>
<ellipse fill="#fdb462" stroke="black" cx="250" cy="-66.8" rx="73.56" ry="18"/>
<text text-anchor="middle" x="250" y="-62.6" font-family="Times,serif" font-size="14.00">BackendService</text>
</g>
<!-- BackendService&#45;&gt;AppModule -->
<g id="edge15" class="edge">
<title>BackendService&#45;&gt;AppModule</title>
<path fill="none" stroke="black" d="M250,-84.84C250,-106.46 250,-139.8 250,-139.8 250,-139.8 1155.26,-139.8 1155.26,-139.8"/>
<polygon fill="black" stroke="black" points="1155.26,-143.3 1165.26,-139.8 1155.26,-136.3 1155.26,-143.3"/>
</g>
</g>
</svg>
