<?xml version="1.0" encoding="UTF-8" standalone="no"?>
<!DOCTYPE svg PUBLIC "-//W3C//DTD SVG 1.1//EN"
 "http://www.w3.org/Graphics/SVG/1.1/DTD/svg11.dtd">
<!-- Generated by graphviz version 2.47.0 (20210316.0004)
 -->
<!-- Title: dependencies Pages: 1 -->
<svg width="2325pt" height="284pt"
 viewBox="0.00 0.00 2325.00 284.00" xmlns="http://www.w3.org/2000/svg" xmlns:xlink="http://www.w3.org/1999/xlink">
<g id="graph0" class="graph" transform="scale(1 1) rotate(0) translate(4 280)">
<title>dependencies</title>
<polygon fill="white" stroke="transparent" points="-4,4 -4,-280 2321,-280 2321,4 -4,4"/>
<text text-anchor="start" x="1137.51" y="-42.4" font-family="sans-serif" font-weight="bold" font-size="14.00">Legend</text>
<polygon fill="#ffffb3" stroke="transparent" points="924.5,-10 924.5,-30 944.5,-30 944.5,-10 924.5,-10"/>
<text text-anchor="start" x="948.13" y="-15.4" font-family="sans-serif" font-size="14.00"> &#160;Declarations</text>
<polygon fill="#8dd3c7" stroke="transparent" points="1037.5,-10 1037.5,-30 1057.5,-30 1057.5,-10 1037.5,-10"/>
<text text-anchor="start" x="1061.23" y="-15.4" font-family="sans-serif" font-size="14.00"> &#160;Module</text>
<polygon fill="#80b1d3" stroke="transparent" points="1123.5,-10 1123.5,-30 1143.5,-30 1143.5,-10 1123.5,-10"/>
<text text-anchor="start" x="1147.28" y="-15.4" font-family="sans-serif" font-size="14.00"> &#160;Bootstrap</text>
<polygon fill="#fdb462" stroke="transparent" points="1220.5,-10 1220.5,-30 1240.5,-30 1240.5,-10 1220.5,-10"/>
<text text-anchor="start" x="1244.17" y="-15.4" font-family="sans-serif" font-size="14.00"> &#160;Providers</text>
<polygon fill="#fb8072" stroke="transparent" points="1316.5,-10 1316.5,-30 1336.5,-30 1336.5,-10 1316.5,-10"/>
<text text-anchor="start" x="1340.23" y="-15.4" font-family="sans-serif" font-size="14.00"> &#160;Exports</text>
<g id="clust1" class="cluster">
<title>cluster_AppModule</title>
<polygon fill="none" stroke="black" stroke-dasharray="1,5" points="8,-70 8,-268 2309,-268 2309,-70 8,-70"/>
</g>
<g id="clust2" class="cluster">
<title>cluster_AppModule_declarations</title>
<polygon fill="none" stroke="black" points="503,-78 503,-130 2301,-130 2301,-78 503,-78"/>
</g>
<g id="clust16" class="cluster">
<title>cluster_AppModule_bootstrap</title>
<polygon fill="none" stroke="black" points="1145,-208 1145,-260 1269,-260 1269,-208 1145,-208"/>
</g>
<g id="clust17" class="cluster">
<title>cluster_AppModule_providers</title>
<polygon fill="none" stroke="black" points="168,-78 168,-130 495,-130 495,-78 168,-78"/>
</g>
<g id="clust14" class="cluster">
<title>cluster_AppModule_imports</title>
<polygon fill="none" stroke="black" points="16,-78 16,-130 160,-130 160,-78 16,-78"/>
</g>
<!-- AdminStarterComponent -->
<g id="node1" class="node">
<title>AdminStarterComponent</title>
<polygon fill="#ffffb3" stroke="black" points="2292.54,-122 2135.46,-122 2135.46,-86 2292.54,-86 2292.54,-122"/>
<text text-anchor="middle" x="2214" y="-99.8" font-family="Times,serif" font-size="14.00">AdminStarterComponent</text>
</g>
<!-- AppModule -->
<g id="node12" class="node">
<title>AppModule</title>
<polygon fill="#8dd3c7" stroke="black" points="1248.66,-187 1245.66,-191 1224.66,-191 1221.66,-187 1165.34,-187 1165.34,-151 1248.66,-151 1248.66,-187"/>
<text text-anchor="middle" x="1207" y="-164.8" font-family="Times,serif" font-size="14.00">AppModule</text>
</g>
<!-- AdminStarterComponent&#45;&gt;AppModule -->
<g id="edge1" class="edge">
<title>AdminStarterComponent&#45;&gt;AppModule</title>
<path fill="none" stroke="black" d="M2214,-122.09C2214,-145.13 2214,-182 2214,-182 2214,-182 1258.67,-182 1258.67,-182"/>
<polygon fill="black" stroke="black" points="1258.67,-178.5 1248.67,-182 1258.67,-185.5 1258.67,-178.5"/>
</g>
<!-- AppComponent -->
<g id="node2" class="node">
<title>AppComponent</title>
<polygon fill="#ffffb3" stroke="black" points="2117.94,-122 2012.06,-122 2012.06,-86 2117.94,-86 2117.94,-122"/>
<text text-anchor="middle" x="2065" y="-99.8" font-family="Times,serif" font-size="14.00">AppComponent</text>
</g>
<!-- AppComponent&#45;&gt;AppModule -->
<g id="edge2" class="edge">
<title>AppComponent&#45;&gt;AppModule</title>
<path fill="none" stroke="black" d="M2065,-122.04C2065,-143.66 2065,-177 2065,-177 2065,-177 1258.67,-177 1258.67,-177"/>
<polygon fill="black" stroke="black" points="1258.67,-173.5 1248.67,-177 1258.67,-180.5 1258.67,-173.5"/>
</g>
<!-- AppRootComponent -->
<g id="node3" class="node">
<title>AppRootComponent</title>
<polygon fill="#ffffb3" stroke="black" points="1994.17,-122 1861.83,-122 1861.83,-86 1994.17,-86 1994.17,-122"/>
<text text-anchor="middle" x="1928" y="-99.8" font-family="Times,serif" font-size="14.00">AppRootComponent</text>
</g>
<!-- AppRootComponent&#45;&gt;AppModule -->
<g id="edge3" class="edge">
<title>AppRootComponent&#45;&gt;AppModule</title>
<path fill="none" stroke="black" d="M1928,-122.22C1928,-142.37 1928,-172 1928,-172 1928,-172 1258.88,-172 1258.88,-172"/>
<polygon fill="black" stroke="black" points="1258.88,-168.5 1248.88,-172 1258.88,-175.5 1258.88,-168.5"/>
</g>
<!-- CodeInputComponent -->
<g id="node4" class="node">
<title>CodeInputComponent</title>
<polygon fill="#ffffb3" stroke="black" points="1843.44,-122 1702.56,-122 1702.56,-86 1843.44,-86 1843.44,-122"/>
<text text-anchor="middle" x="1773" y="-99.8" font-family="Times,serif" font-size="14.00">CodeInputComponent</text>
</g>
<!-- CodeInputComponent&#45;&gt;AppModule -->
<g id="edge4" class="edge">
<title>CodeInputComponent&#45;&gt;AppModule</title>
<path fill="none" stroke="black" d="M1773,-122.22C1773,-140.83 1773,-167 1773,-167 1773,-167 1259.08,-167 1259.08,-167"/>
<polygon fill="black" stroke="black" points="1259.08,-163.5 1249.08,-167 1259.08,-170.5 1259.08,-163.5"/>
</g>
<!-- LegalNoticeComponent -->
<g id="node5" class="node">
<title>LegalNoticeComponent</title>
<polygon fill="#ffffb3" stroke="black" points="1685.02,-122 1534.98,-122 1534.98,-86 1685.02,-86 1685.02,-122"/>
<text text-anchor="middle" x="1610" y="-99.8" font-family="Times,serif" font-size="14.00">LegalNoticeComponent</text>
</g>
<!-- LegalNoticeComponent&#45;&gt;AppModule -->
<g id="edge5" class="edge">
<title>LegalNoticeComponent&#45;&gt;AppModule</title>
<path fill="none" stroke="black" d="M1610,-122.03C1610,-139.06 1610,-162 1610,-162 1610,-162 1258.99,-162 1258.99,-162"/>
<polygon fill="black" stroke="black" points="1258.99,-158.5 1248.99,-162 1258.99,-165.5 1258.99,-158.5"/>
</g>
<!-- LoginComponent -->
<g id="node6" class="node">
<title>LoginComponent</title>
<polygon fill="#ffffb3" stroke="black" points="1516.28,-122 1401.72,-122 1401.72,-86 1516.28,-86 1516.28,-122"/>
<text text-anchor="middle" x="1459" y="-99.8" font-family="Times,serif" font-size="14.00">LoginComponent</text>
</g>
<!-- LoginComponent&#45;&gt;AppModule -->
<g id="edge6" class="edge">
<title>LoginComponent&#45;&gt;AppModule</title>
<path fill="none" stroke="black" d="M1459,-122.24C1459,-137.57 1459,-157 1459,-157 1459,-157 1258.9,-157 1258.9,-157"/>
<polygon fill="black" stroke="black" points="1258.9,-153.5 1248.9,-157 1258.9,-160.5 1258.9,-153.5"/>
</g>
<!-- MonitorStarterComponent -->
<g id="node7" class="node">
<title>MonitorStarterComponent</title>
<polygon fill="#ffffb3" stroke="black" points="1383.03,-122 1218.97,-122 1218.97,-86 1383.03,-86 1383.03,-122"/>
<text text-anchor="middle" x="1301" y="-99.8" font-family="Times,serif" font-size="14.00">MonitorStarterComponent</text>
</g>
<!-- MonitorStarterComponent&#45;&gt;AppModule -->
<g id="edge7" class="edge">
<title>MonitorStarterComponent&#45;&gt;AppModule</title>
<path fill="none" stroke="black" d="M1233.78,-122.11C1233.78,-122.11 1233.78,-140.99 1233.78,-140.99"/>
<polygon fill="black" stroke="black" points="1230.28,-140.99 1233.78,-150.99 1237.28,-140.99 1230.28,-140.99"/>
</g>
<!-- RouteDispatcherComponent -->
<g id="node8" class="node">
<title>RouteDispatcherComponent</title>
<polygon fill="#ffffb3" stroke="black" points="1200.91,-122 1025.09,-122 1025.09,-86 1200.91,-86 1200.91,-122"/>
<text text-anchor="middle" x="1113" y="-99.8" font-family="Times,serif" font-size="14.00">RouteDispatcherComponent</text>
</g>
<!-- RouteDispatcherComponent&#45;&gt;AppModule -->
<g id="edge8" class="edge">
<title>RouteDispatcherComponent&#45;&gt;AppModule</title>
<path fill="none" stroke="black" d="M1182.94,-122.11C1182.94,-122.11 1182.94,-140.99 1182.94,-140.99"/>
<polygon fill="black" stroke="black" points="1179.44,-140.99 1182.94,-150.99 1186.44,-140.99 1179.44,-140.99"/>
</g>
<!-- StatusCardComponent -->
<g id="node9" class="node">
<title>StatusCardComponent</title>
<polygon fill="#ffffb3" stroke="black" points="1007.27,-122 864.73,-122 864.73,-86 1007.27,-86 1007.27,-122"/>
<text text-anchor="middle" x="936" y="-99.8" font-family="Times,serif" font-size="14.00">StatusCardComponent</text>
</g>
<!-- StatusCardComponent&#45;&gt;AppModule -->
<g id="edge9" class="edge">
<title>StatusCardComponent&#45;&gt;AppModule</title>
<path fill="none" stroke="black" d="M936,-122.24C936,-137.57 936,-157 936,-157 936,-157 1155.25,-157 1155.25,-157"/>
<polygon fill="black" stroke="black" points="1155.25,-160.5 1165.25,-157 1155.25,-153.5 1155.25,-160.5"/>
</g>
<!-- SysCheckStarterComponent -->
<g id="node10" class="node">
<title>SysCheckStarterComponent</title>
<polygon fill="#ffffb3" stroke="black" points="846.14,-122 671.86,-122 671.86,-86 846.14,-86 846.14,-122"/>
<text text-anchor="middle" x="759" y="-99.8" font-family="Times,serif" font-size="14.00">SysCheckStarterComponent</text>
</g>
<!-- SysCheckStarterComponent&#45;&gt;AppModule -->
<g id="edge10" class="edge">
<title>SysCheckStarterComponent&#45;&gt;AppModule</title>
<path fill="none" stroke="black" d="M759,-122.03C759,-139.06 759,-162 759,-162 759,-162 1155.26,-162 1155.26,-162"/>
<polygon fill="black" stroke="black" points="1155.26,-165.5 1165.26,-162 1155.26,-158.5 1155.26,-165.5"/>
</g>
<!-- TestStarterComponent -->
<g id="node11" class="node">
<title>TestStarterComponent</title>
<polygon fill="#ffffb3" stroke="black" points="653.25,-122 510.75,-122 510.75,-86 653.25,-86 653.25,-122"/>
<text text-anchor="middle" x="582" y="-99.8" font-family="Times,serif" font-size="14.00">TestStarterComponent</text>
</g>
<!-- TestStarterComponent&#45;&gt;AppModule -->
<g id="edge11" class="edge">
<title>TestStarterComponent&#45;&gt;AppModule</title>
<path fill="none" stroke="black" d="M582,-122.22C582,-140.83 582,-167 582,-167 582,-167 1155.02,-167 1155.02,-167"/>
<polygon fill="black" stroke="black" points="1155.02,-170.5 1165.02,-167 1155.02,-163.5 1155.02,-170.5"/>
</g>
<!-- AppComponent  -->
<g id="node14" class="node">
<title>AppComponent </title>
<polygon fill="#80b1d3" stroke="black" points="1261.44,-252 1152.56,-252 1152.56,-216 1261.44,-216 1261.44,-252"/>
<text text-anchor="middle" x="1207" y="-229.8" font-family="Times,serif" font-size="14.00">AppComponent </text>
</g>
<!-- AppModule&#45;&gt;AppComponent  -->
<g id="edge13" class="edge">
<title>AppModule&#45;&gt;AppComponent </title>
<path fill="none" stroke="black" stroke-dasharray="1,5" d="M1207,-187.11C1207,-187.11 1207,-205.99 1207,-205.99"/>
<polygon fill="black" stroke="black" points="1203.5,-205.99 1207,-215.99 1210.5,-205.99 1203.5,-205.99"/>
</g>
<!-- AppRoutingModule -->
<g id="node13" class="node">
<title>AppRoutingModule</title>
<polygon fill="#8dd3c7" stroke="black" points="152.27,-122 149.27,-126 128.27,-126 125.27,-122 23.73,-122 23.73,-86 152.27,-86 152.27,-122"/>
<text text-anchor="middle" x="88" y="-99.8" font-family="Times,serif" font-size="14.00">AppRoutingModule</text>
</g>
<!-- AppRoutingModule&#45;&gt;AppModule -->
<g id="edge12" class="edge">
<title>AppRoutingModule&#45;&gt;AppModule</title>
<path fill="none" stroke="black" d="M88,-122.09C88,-145.13 88,-182 88,-182 88,-182 1155.18,-182 1155.18,-182"/>
<polygon fill="black" stroke="black" points="1155.18,-185.5 1165.18,-182 1155.18,-178.5 1155.18,-185.5"/>
</g>
<!-- AuthInterceptor -->
<g id="node15" class="node">
<title>AuthInterceptor</title>
<ellipse fill="#fdb462" stroke="black" cx="414" cy="-104" rx="72.91" ry="18"/>
<text text-anchor="middle" x="414" y="-99.8" font-family="Times,serif" font-size="14.00">AuthInterceptor</text>
</g>
<!-- AuthInterceptor&#45;&gt;AppModule -->
<g id="edge14" class="edge">
<title>AuthInterceptor&#45;&gt;AppModule</title>
<path fill="none" stroke="black" d="M414,-122.22C414,-142.37 414,-172 414,-172 414,-172 1155.2,-172 1155.2,-172"/>
<polygon fill="black" stroke="black" points="1155.2,-175.5 1165.2,-172 1155.2,-168.5 1155.2,-175.5"/>
</g>
<!-- BackendService -->
<g id="node16" class="node">
<title>BackendService</title>
<ellipse fill="#fdb462" stroke="black" cx="250" cy="-104" rx="73.56" ry="18"/>
<text text-anchor="middle" x="250" y="-99.8" font-family="Times,serif" font-size="14.00">BackendService</text>
</g>
<!-- BackendService&#45;&gt;AppModule -->
<g id="edge15" class="edge">
<title>BackendService&#45;&gt;AppModule</title>
<path fill="none" stroke="black" d="M250,-122.04C250,-143.66 250,-177 250,-177 250,-177 1155.26,-177 1155.26,-177"/>
<polygon fill="black" stroke="black" points="1155.26,-180.5 1165.26,-177 1155.26,-173.5 1155.26,-180.5"/>
</g>
</g>
</svg>
