<?xml version="1.0" encoding="UTF-8" standalone="no"?>
<!DOCTYPE svg PUBLIC "-//W3C//DTD SVG 1.1//EN"
 "http://www.w3.org/Graphics/SVG/1.1/DTD/svg11.dtd">
<!-- Generated by graphviz version 2.47.3 (20210619.1520)
 -->
<!-- Title: dependencies Pages: 1 -->
<svg width="861pt" height="247pt"
 viewBox="0.00 0.00 861.00 246.80" xmlns="http://www.w3.org/2000/svg" xmlns:xlink="http://www.w3.org/1999/xlink">
<g id="graph0" class="graph" transform="scale(1 1) rotate(0) translate(4 242.8)">
<title>dependencies</title>
<polygon fill="white" stroke="transparent" points="-4,4 -4,-242.8 857,-242.8 857,4 -4,4"/>
<text text-anchor="middle" x="426.5" y="-8.2" font-family="sans-serif" font-size="14.00">dependencies</text>
<g id="clust1" class="cluster">
<title>cluster_TestControllerModule</title>
<polygon fill="none" stroke="black" stroke-dasharray="1,5" points="8,-32.8 8,-230.8 845,-230.8 845,-32.8 8,-32.8"/>
</g>
<g id="clust2" class="cluster">
<title>cluster_TestControllerModule_declarations</title>
<polygon fill="none" stroke="black" points="16,-40.8 16,-92.8 837,-92.8 837,-40.8 16,-40.8"/>
</g>
<g id="clust9" class="cluster">
<title>cluster_TestControllerModule_exports</title>
<polygon fill="none" stroke="black" points="307,-170.8 307,-222.8 489,-222.8 489,-170.8 307,-170.8"/>
</g>
<!-- ReviewDialogComponent -->
<g id="node1" class="node">
<title>ReviewDialogComponent</title>
<polygon fill="#ffffb3" stroke="black" points="829.2,-84.8 666.8,-84.8 666.8,-48.8 829.2,-48.8 829.2,-84.8"/>
<text text-anchor="middle" x="748" y="-62.6" font-family="Times,serif" font-size="14.00">ReviewDialogComponent</text>
</g>
<!-- TestControllerModule -->
<g id="node6" class="node">
<title>TestControllerModule</title>
<polygon fill="#8dd3c7" stroke="black" points="468.7,-149.8 465.7,-153.8 444.7,-153.8 441.7,-149.8 327.3,-149.8 327.3,-113.8 468.7,-113.8 468.7,-149.8"/>
<text text-anchor="middle" x="398" y="-127.6" font-family="Times,serif" font-size="14.00">TestControllerModule</text>
</g>
<!-- ReviewDialogComponent&#45;&gt;TestControllerModule -->
<g id="edge1" class="edge">
<title>ReviewDialogComponent&#45;&gt;TestControllerModule</title>
<path fill="none" stroke="black" d="M748,-85.08C748,-106.12 748,-137.8 748,-137.8 748,-137.8 478.83,-137.8 478.83,-137.8"/>
<polygon fill="black" stroke="black" points="478.83,-134.3 468.83,-137.8 478.83,-141.3 478.83,-134.3"/>
</g>
<!-- TestControllerComponent -->
<g id="node2" class="node">
<title>TestControllerComponent</title>
<polygon fill="#ffffb3" stroke="black" points="648.48,-84.8 485.52,-84.8 485.52,-48.8 648.48,-48.8 648.48,-84.8"/>
<text text-anchor="middle" x="567" y="-62.6" font-family="Times,serif" font-size="14.00">TestControllerComponent</text>
</g>
<!-- TestControllerComponent&#45;&gt;TestControllerModule -->
<g id="edge2" class="edge">
<title>TestControllerComponent&#45;&gt;TestControllerModule</title>
<path fill="none" stroke="black" d="M567,-84.82C567,-102.17 567,-125.8 567,-125.8 567,-125.8 478.69,-125.8 478.69,-125.8"/>
<polygon fill="black" stroke="black" points="478.69,-122.3 468.69,-125.8 478.69,-129.3 478.69,-122.3"/>
</g>
<!-- TestStatusComponent -->
<g id="node3" class="node">
<title>TestStatusComponent</title>
<polygon fill="#ffffb3" stroke="black" points="467.66,-84.8 328.34,-84.8 328.34,-48.8 467.66,-48.8 467.66,-84.8"/>
<text text-anchor="middle" x="398" y="-62.6" font-family="Times,serif" font-size="14.00">TestStatusComponent</text>
</g>
<!-- TestStatusComponent&#45;&gt;TestControllerModule -->
<g id="edge3" class="edge">
<title>TestStatusComponent&#45;&gt;TestControllerModule</title>
<path fill="none" stroke="black" d="M398,-84.91C398,-84.91 398,-103.79 398,-103.79"/>
<polygon fill="black" stroke="black" points="394.5,-103.79 398,-113.79 401.5,-103.79 394.5,-103.79"/>
</g>
<!-- UnitMenuComponent -->
<g id="node4" class="node">
<title>UnitMenuComponent</title>
<polygon fill="#ffffb3" stroke="black" points="310.38,-84.8 171.62,-84.8 171.62,-48.8 310.38,-48.8 310.38,-84.8"/>
<text text-anchor="middle" x="241" y="-62.6" font-family="Times,serif" font-size="14.00">UnitMenuComponent</text>
</g>
<!-- UnitMenuComponent&#45;&gt;TestControllerModule -->
<g id="edge4" class="edge">
<title>UnitMenuComponent&#45;&gt;TestControllerModule</title>
<path fill="none" stroke="black" d="M241,-84.82C241,-102.17 241,-125.8 241,-125.8 241,-125.8 317.31,-125.8 317.31,-125.8"/>
<polygon fill="black" stroke="black" points="317.31,-129.3 327.31,-125.8 317.31,-122.3 317.31,-129.3"/>
</g>
<!-- UnithostComponent -->
<g id="node5" class="node">
<title>UnithostComponent</title>
<polygon fill="#ffffb3" stroke="black" points="153.56,-84.8 24.44,-84.8 24.44,-48.8 153.56,-48.8 153.56,-84.8"/>
<text text-anchor="middle" x="89" y="-62.6" font-family="Times,serif" font-size="14.00">UnithostComponent</text>
</g>
<!-- UnithostComponent&#45;&gt;TestControllerModule -->
<g id="edge5" class="edge">
<title>UnithostComponent&#45;&gt;TestControllerModule</title>
<path fill="none" stroke="black" d="M89,-85.08C89,-106.12 89,-137.8 89,-137.8 89,-137.8 317.11,-137.8 317.11,-137.8"/>
<polygon fill="black" stroke="black" points="317.11,-141.3 327.11,-137.8 317.11,-134.3 317.11,-141.3"/>
</g>
<!-- TestControllerComponent  -->
<g id="node7" class="node">
<title>TestControllerComponent </title>
<polygon fill="#fb8072" stroke="black" points="481.48,-214.8 314.52,-214.8 314.52,-178.8 481.48,-178.8 481.48,-214.8"/>
<text text-anchor="middle" x="398" y="-192.6" font-family="Times,serif" font-size="14.00">TestControllerComponent </text>
</g>
<!-- TestControllerModule&#45;&gt;TestControllerComponent  -->
<g id="edge6" class="edge">
<title>TestControllerModule&#45;&gt;TestControllerComponent </title>
<path fill="none" stroke="black" stroke-dasharray="5,2" d="M398,-149.91C398,-149.91 398,-168.79 398,-168.79"/>
<polygon fill="black" stroke="black" points="394.5,-168.79 398,-178.79 401.5,-168.79 394.5,-168.79"/>
</g>
</g>
</svg>
