<?xml version="1.0" encoding="UTF-8" standalone="no"?>
<!DOCTYPE svg PUBLIC "-//W3C//DTD SVG 1.1//EN"
 "http://www.w3.org/Graphics/SVG/1.1/DTD/svg11.dtd">
<!-- Generated by graphviz version 2.47.0 (20210316.0004)
 -->
<!-- Title: dependencies Pages: 1 -->
<svg width="1031pt" height="284pt"
 viewBox="0.00 0.00 1031.00 284.00" xmlns="http://www.w3.org/2000/svg" xmlns:xlink="http://www.w3.org/1999/xlink">
<g id="graph0" class="graph" transform="scale(1 1) rotate(0) translate(4 280)">
<title>dependencies</title>
<polygon fill="white" stroke="transparent" points="-4,4 -4,-280 1027,-280 1027,4 -4,4"/>
<text text-anchor="start" x="490.51" y="-42.4" font-family="sans-serif" font-weight="bold" font-size="14.00">Legend</text>
<polygon fill="#ffffb3" stroke="transparent" points="277.5,-10 277.5,-30 297.5,-30 297.5,-10 277.5,-10"/>
<text text-anchor="start" x="301.13" y="-15.4" font-family="sans-serif" font-size="14.00"> &#160;Declarations</text>
<polygon fill="#8dd3c7" stroke="transparent" points="390.5,-10 390.5,-30 410.5,-30 410.5,-10 390.5,-10"/>
<text text-anchor="start" x="414.23" y="-15.4" font-family="sans-serif" font-size="14.00"> &#160;Module</text>
<polygon fill="#80b1d3" stroke="transparent" points="476.5,-10 476.5,-30 496.5,-30 496.5,-10 476.5,-10"/>
<text text-anchor="start" x="500.28" y="-15.4" font-family="sans-serif" font-size="14.00"> &#160;Bootstrap</text>
<polygon fill="#fdb462" stroke="transparent" points="573.5,-10 573.5,-30 593.5,-30 593.5,-10 573.5,-10"/>
<text text-anchor="start" x="597.17" y="-15.4" font-family="sans-serif" font-size="14.00"> &#160;Providers</text>
<polygon fill="#fb8072" stroke="transparent" points="669.5,-10 669.5,-30 689.5,-30 689.5,-10 669.5,-10"/>
<text text-anchor="start" x="693.23" y="-15.4" font-family="sans-serif" font-size="14.00"> &#160;Exports</text>
<g id="clust1" class="cluster">
<title>cluster_TestControllerModule</title>
<polygon fill="none" stroke="black" stroke-dasharray="1,5" points="8,-70 8,-268 1015,-268 1015,-70 8,-70"/>
</g>
<g id="clust10" class="cluster">
<title>cluster_TestControllerModule_exports</title>
<polygon fill="none" stroke="black" points="398,-208 398,-260 580,-260 580,-208 398,-208"/>
</g>
<g id="clust2" class="cluster">
<title>cluster_TestControllerModule_declarations</title>
<polygon fill="none" stroke="black" points="16,-78 16,-130 1007,-130 1007,-78 16,-78"/>
</g>
<!-- ReviewDialogComponent -->
<g id="node1" class="node">
<title>ReviewDialogComponent</title>
<polygon fill="#ffffb3" stroke="black" points="999.2,-122 836.8,-122 836.8,-86 999.2,-86 999.2,-122"/>
<text text-anchor="middle" x="918" y="-99.8" font-family="Times,serif" font-size="14.00">ReviewDialogComponent</text>
</g>
<!-- TestControllerModule -->
<g id="node7" class="node">
<title>TestControllerModule</title>
<polygon fill="#8dd3c7" stroke="black" points="559.7,-187 556.7,-191 535.7,-191 532.7,-187 418.3,-187 418.3,-151 559.7,-151 559.7,-187"/>
<text text-anchor="middle" x="489" y="-164.8" font-family="Times,serif" font-size="14.00">TestControllerModule</text>
</g>
<!-- ReviewDialogComponent&#45;&gt;TestControllerModule -->
<g id="edge1" class="edge">
<title>ReviewDialogComponent&#45;&gt;TestControllerModule</title>
<path fill="none" stroke="black" d="M918,-122.28C918,-143.32 918,-175 918,-175 918,-175 569.84,-175 569.84,-175"/>
<polygon fill="black" stroke="black" points="569.84,-171.5 559.84,-175 569.84,-178.5 569.84,-171.5"/>
</g>
<!-- TestControllerComponent -->
<g id="node2" class="node">
<title>TestControllerComponent</title>
<polygon fill="#ffffb3" stroke="black" points="818.48,-122 655.52,-122 655.52,-86 818.48,-86 818.48,-122"/>
<text text-anchor="middle" x="737" y="-99.8" font-family="Times,serif" font-size="14.00">TestControllerComponent</text>
</g>
<!-- TestControllerComponent&#45;&gt;TestControllerModule -->
<g id="edge2" class="edge">
<title>TestControllerComponent&#45;&gt;TestControllerModule</title>
<path fill="none" stroke="black" d="M737,-122.02C737,-139.37 737,-163 737,-163 737,-163 569.73,-163 569.73,-163"/>
<polygon fill="black" stroke="black" points="569.73,-159.5 559.73,-163 569.73,-166.5 569.73,-159.5"/>
</g>
<!-- TestStatusComponent -->
<g id="node3" class="node">
<title>TestStatusComponent</title>
<polygon fill="#ffffb3" stroke="black" points="637.66,-122 498.34,-122 498.34,-86 637.66,-86 637.66,-122"/>
<text text-anchor="middle" x="568" y="-99.8" font-family="Times,serif" font-size="14.00">TestStatusComponent</text>
</g>
<!-- TestStatusComponent&#45;&gt;TestControllerModule -->
<g id="edge3" class="edge">
<title>TestStatusComponent&#45;&gt;TestControllerModule</title>
<path fill="none" stroke="black" d="M528.88,-122.11C528.88,-122.11 528.88,-140.99 528.88,-140.99"/>
<polygon fill="black" stroke="black" points="525.38,-140.99 528.88,-150.99 532.38,-140.99 525.38,-140.99"/>
</g>
<!-- UnitMenuComponent -->
<g id="node4" class="node">
<title>UnitMenuComponent</title>
<polygon fill="#ffffb3" stroke="black" points="480.38,-122 341.62,-122 341.62,-86 480.38,-86 480.38,-122"/>
<text text-anchor="middle" x="411" y="-99.8" font-family="Times,serif" font-size="14.00">UnitMenuComponent</text>
</g>
<!-- UnitMenuComponent&#45;&gt;TestControllerModule -->
<g id="edge4" class="edge">
<title>UnitMenuComponent&#45;&gt;TestControllerModule</title>
<path fill="none" stroke="black" d="M449.42,-122.11C449.42,-122.11 449.42,-140.99 449.42,-140.99"/>
<polygon fill="black" stroke="black" points="445.92,-140.99 449.42,-150.99 452.92,-140.99 445.92,-140.99"/>
</g>
<!-- UnithostComponent -->
<g id="node5" class="node">
<title>UnithostComponent</title>
<polygon fill="#ffffb3" stroke="black" points="323.56,-122 194.44,-122 194.44,-86 323.56,-86 323.56,-122"/>
<text text-anchor="middle" x="259" y="-99.8" font-family="Times,serif" font-size="14.00">UnithostComponent</text>
</g>
<!-- UnithostComponent&#45;&gt;TestControllerModule -->
<g id="edge5" class="edge">
<title>UnithostComponent&#45;&gt;TestControllerModule</title>
<path fill="none" stroke="black" d="M259,-122.02C259,-139.37 259,-163 259,-163 259,-163 408.12,-163 408.12,-163"/>
<polygon fill="black" stroke="black" points="408.12,-166.5 418.12,-163 408.12,-159.5 408.12,-166.5"/>
</g>
<!-- UnlockInputComponent -->
<g id="node6" class="node">
<title>UnlockInputComponent</title>
<polygon fill="#ffffb3" stroke="black" points="176.1,-122 23.9,-122 23.9,-86 176.1,-86 176.1,-122"/>
<text text-anchor="middle" x="100" y="-99.8" font-family="Times,serif" font-size="14.00">UnlockInputComponent</text>
</g>
<!-- UnlockInputComponent&#45;&gt;TestControllerModule -->
<g id="edge6" class="edge">
<title>UnlockInputComponent&#45;&gt;TestControllerModule</title>
<path fill="none" stroke="black" d="M100,-122.28C100,-143.32 100,-175 100,-175 100,-175 408.1,-175 408.1,-175"/>
<polygon fill="black" stroke="black" points="408.1,-178.5 418.1,-175 408.1,-171.5 408.1,-178.5"/>
</g>
<!-- TestControllerComponent  -->
<g id="node8" class="node">
<title>TestControllerComponent </title>
<polygon fill="#fb8072" stroke="black" points="572.48,-252 405.52,-252 405.52,-216 572.48,-216 572.48,-252"/>
<text text-anchor="middle" x="489" y="-229.8" font-family="Times,serif" font-size="14.00">TestControllerComponent </text>
</g>
<!-- TestControllerModule&#45;&gt;TestControllerComponent  -->
<g id="edge7" class="edge">
<title>TestControllerModule&#45;&gt;TestControllerComponent </title>
<path fill="none" stroke="black" stroke-dasharray="5,2" d="M489,-187.11C489,-187.11 489,-205.99 489,-205.99"/>
<polygon fill="black" stroke="black" points="485.5,-205.99 489,-215.99 492.5,-205.99 485.5,-205.99"/>
</g>
</g>
</svg>
