<?xml version="1.0" encoding="UTF-8" standalone="no"?>
<!DOCTYPE svg PUBLIC "-//W3C//DTD SVG 1.1//EN"
 "http://www.w3.org/Graphics/SVG/1.1/DTD/svg11.dtd">
<!-- Generated by graphviz version 2.47.0 (20210316.0004)
 -->
<!-- Title: dependencies Pages: 1 -->
<svg width="781pt" height="284pt"
 viewBox="0.00 0.00 781.00 284.00" xmlns="http://www.w3.org/2000/svg" xmlns:xlink="http://www.w3.org/1999/xlink">
<g id="graph0" class="graph" transform="scale(1 1) rotate(0) translate(4 280)">
<title>dependencies</title>
<polygon fill="white" stroke="transparent" points="-4,4 -4,-280 777,-280 777,4 -4,4"/>
<text text-anchor="start" x="365.51" y="-42.4" font-family="sans-serif" font-weight="bold" font-size="14.00">Legend</text>
<polygon fill="#ffffb3" stroke="transparent" points="152.5,-10 152.5,-30 172.5,-30 172.5,-10 152.5,-10"/>
<text text-anchor="start" x="176.13" y="-15.4" font-family="sans-serif" font-size="14.00"> &#160;Declarations</text>
<polygon fill="#8dd3c7" stroke="transparent" points="265.5,-10 265.5,-30 285.5,-30 285.5,-10 265.5,-10"/>
<text text-anchor="start" x="289.23" y="-15.4" font-family="sans-serif" font-size="14.00"> &#160;Module</text>
<polygon fill="#80b1d3" stroke="transparent" points="351.5,-10 351.5,-30 371.5,-30 371.5,-10 351.5,-10"/>
<text text-anchor="start" x="375.28" y="-15.4" font-family="sans-serif" font-size="14.00"> &#160;Bootstrap</text>
<polygon fill="#fdb462" stroke="transparent" points="448.5,-10 448.5,-30 468.5,-30 468.5,-10 448.5,-10"/>
<text text-anchor="start" x="472.17" y="-15.4" font-family="sans-serif" font-size="14.00"> &#160;Providers</text>
<polygon fill="#fb8072" stroke="transparent" points="544.5,-10 544.5,-30 564.5,-30 564.5,-10 544.5,-10"/>
<text text-anchor="start" x="568.23" y="-15.4" font-family="sans-serif" font-size="14.00"> &#160;Exports</text>
<g id="clust1" class="cluster">
<title>cluster_IqbFilesModule</title>
<polygon fill="none" stroke="black" stroke-dasharray="1,5" points="8,-70 8,-268 765,-268 765,-70 8,-70"/>
</g>
<g id="clust2" class="cluster">
<title>cluster_IqbFilesModule_declarations</title>
<polygon fill="none" stroke="black" points="128,-78 128,-130 757,-130 757,-78 128,-78"/>
</g>
<g id="clust6" class="cluster">
<title>cluster_IqbFilesModule_imports</title>
<polygon fill="none" stroke="black" points="16,-78 16,-130 120,-130 120,-78 16,-78"/>
</g>
<g id="clust7" class="cluster">
<title>cluster_IqbFilesModule_exports</title>
<polygon fill="none" stroke="black" points="116,-208 116,-260 566,-260 566,-208 116,-208"/>
</g>
<!-- IqbFilesUploadComponent -->
<g id="node1" class="node">
<title>IqbFilesUploadComponent</title>
<polygon fill="#ffffb3" stroke="black" points="749.43,-122 580.57,-122 580.57,-86 749.43,-86 749.43,-122"/>
<text text-anchor="middle" x="665" y="-99.8" font-family="Times,serif" font-size="14.00">IqbFilesUploadComponent</text>
</g>
<!-- IqbFilesModule -->
<g id="node4" class="node">
<title>IqbFilesModule</title>
<polygon fill="#8dd3c7" stroke="black" points="380.93,-187 377.93,-191 356.93,-191 353.93,-187 275.07,-187 275.07,-151 380.93,-151 380.93,-187"/>
<text text-anchor="middle" x="328" y="-164.8" font-family="Times,serif" font-size="14.00">IqbFilesModule</text>
</g>
<!-- IqbFilesUploadComponent&#45;&gt;IqbFilesModule -->
<g id="edge1" class="edge">
<title>IqbFilesUploadComponent&#45;&gt;IqbFilesModule</title>
<path fill="none" stroke="black" d="M665,-122.11C665,-141.34 665,-169 665,-169 665,-169 391.03,-169 391.03,-169"/>
<polygon fill="black" stroke="black" points="391.03,-165.5 381.03,-169 391.03,-172.5 391.03,-165.5"/>
</g>
<!-- IqbFilesUploadInputForDirective -->
<g id="node2" class="node">
<title>IqbFilesUploadInputForDirective</title>
<polygon fill="#ffffb3" stroke="black" points="563.17,-122 358.83,-122 358.83,-86 563.17,-86 563.17,-122"/>
<text text-anchor="middle" x="461" y="-99.8" font-family="Times,serif" font-size="14.00">IqbFilesUploadInputForDirective</text>
</g>
<!-- IqbFilesUploadInputForDirective&#45;&gt;IqbFilesModule -->
<g id="edge2" class="edge">
<title>IqbFilesUploadInputForDirective&#45;&gt;IqbFilesModule</title>
<path fill="none" stroke="black" d="M369.82,-122.11C369.82,-122.11 369.82,-140.99 369.82,-140.99"/>
<polygon fill="black" stroke="black" points="366.32,-140.99 369.82,-150.99 373.32,-140.99 366.32,-140.99"/>
</g>
<!-- IqbFilesUploadQueueComponent -->
<g id="node3" class="node">
<title>IqbFilesUploadQueueComponent</title>
<polygon fill="#ffffb3" stroke="black" points="340.46,-122 135.54,-122 135.54,-86 340.46,-86 340.46,-122"/>
<text text-anchor="middle" x="238" y="-99.8" font-family="Times,serif" font-size="14.00">IqbFilesUploadQueueComponent</text>
</g>
<!-- IqbFilesUploadQueueComponent&#45;&gt;IqbFilesModule -->
<g id="edge3" class="edge">
<title>IqbFilesUploadQueueComponent&#45;&gt;IqbFilesModule</title>
<path fill="none" stroke="black" d="M307.88,-122.11C307.88,-122.11 307.88,-140.99 307.88,-140.99"/>
<polygon fill="black" stroke="black" points="304.38,-140.99 307.88,-150.99 311.38,-140.99 304.38,-140.99"/>
</g>
<!-- IqbFilesUploadInputForDirective  -->
<g id="node6" class="node">
<title>IqbFilesUploadInputForDirective </title>
<polygon fill="#fb8072" stroke="black" points="557.67,-252 350.33,-252 350.33,-216 557.67,-216 557.67,-252"/>
<text text-anchor="middle" x="454" y="-229.8" font-family="Times,serif" font-size="14.00">IqbFilesUploadInputForDirective </text>
</g>
<!-- IqbFilesModule&#45;&gt;IqbFilesUploadInputForDirective  -->
<g id="edge5" class="edge">
<title>IqbFilesModule&#45;&gt;IqbFilesUploadInputForDirective </title>
<path fill="none" stroke="black" stroke-dasharray="5,2" d="M365.44,-187.11C365.44,-187.11 365.44,-205.99 365.44,-205.99"/>
<polygon fill="black" stroke="black" points="361.94,-205.99 365.44,-215.99 368.94,-205.99 361.94,-205.99"/>
</g>
<!-- IqbFilesUploadQueueComponent  -->
<g id="node7" class="node">
<title>IqbFilesUploadQueueComponent </title>
<polygon fill="#fb8072" stroke="black" points="332.46,-252 123.54,-252 123.54,-216 332.46,-216 332.46,-252"/>
<text text-anchor="middle" x="228" y="-229.8" font-family="Times,serif" font-size="14.00">IqbFilesUploadQueueComponent </text>
</g>
<!-- IqbFilesModule&#45;&gt;IqbFilesUploadQueueComponent  -->
<g id="edge6" class="edge">
<title>IqbFilesModule&#45;&gt;IqbFilesUploadQueueComponent </title>
<path fill="none" stroke="black" stroke-dasharray="5,2" d="M303.76,-187.11C303.76,-187.11 303.76,-205.99 303.76,-205.99"/>
<polygon fill="black" stroke="black" points="300.26,-205.99 303.76,-215.99 307.26,-205.99 300.26,-205.99"/>
</g>
<!-- AlertModule -->
<g id="node5" class="node">
<title>AlertModule</title>
<polygon fill="#8dd3c7" stroke="black" points="112.31,-122 109.31,-126 88.31,-126 85.31,-122 23.69,-122 23.69,-86 112.31,-86 112.31,-122"/>
<text text-anchor="middle" x="68" y="-99.8" font-family="Times,serif" font-size="14.00">AlertModule</text>
</g>
<!-- AlertModule&#45;&gt;IqbFilesModule -->
<g id="edge4" class="edge">
<title>AlertModule&#45;&gt;IqbFilesModule</title>
<path fill="none" stroke="black" d="M68,-122.11C68,-141.34 68,-169 68,-169 68,-169 265.07,-169 265.07,-169"/>
<polygon fill="black" stroke="black" points="265.07,-172.5 275.07,-169 265.07,-165.5 265.07,-172.5"/>
</g>
</g>
</svg>
