<?xml version="1.0" encoding="UTF-8" standalone="no"?>
<!DOCTYPE svg PUBLIC "-//W3C//DTD SVG 1.1//EN"
 "http://www.w3.org/Graphics/SVG/1.1/DTD/svg11.dtd">
<!-- Generated by graphviz version 2.47.0 (20210316.0004)
 -->
<!-- Title: dependencies Pages: 1 -->
<svg width="2635pt" height="284pt"
 viewBox="0.00 0.00 2635.00 284.00" xmlns="http://www.w3.org/2000/svg" xmlns:xlink="http://www.w3.org/1999/xlink">
<g id="graph0" class="graph" transform="scale(1 1) rotate(0) translate(4 280)">
<title>dependencies</title>
<polygon fill="white" stroke="transparent" points="-4,4 -4,-280 2631,-280 2631,4 -4,4"/>
<text text-anchor="start" x="1292.51" y="-42.4" font-family="sans-serif" font-weight="bold" font-size="14.00">Legend</text>
<polygon fill="#ffffb3" stroke="transparent" points="1079.5,-10 1079.5,-30 1099.5,-30 1099.5,-10 1079.5,-10"/>
<text text-anchor="start" x="1103.13" y="-15.4" font-family="sans-serif" font-size="14.00"> &#160;Declarations</text>
<polygon fill="#8dd3c7" stroke="transparent" points="1192.5,-10 1192.5,-30 1212.5,-30 1212.5,-10 1192.5,-10"/>
<text text-anchor="start" x="1216.23" y="-15.4" font-family="sans-serif" font-size="14.00"> &#160;Module</text>
<polygon fill="#80b1d3" stroke="transparent" points="1278.5,-10 1278.5,-30 1298.5,-30 1298.5,-10 1278.5,-10"/>
<text text-anchor="start" x="1302.28" y="-15.4" font-family="sans-serif" font-size="14.00"> &#160;Bootstrap</text>
<polygon fill="#fdb462" stroke="transparent" points="1375.5,-10 1375.5,-30 1395.5,-30 1395.5,-10 1375.5,-10"/>
<text text-anchor="start" x="1399.17" y="-15.4" font-family="sans-serif" font-size="14.00"> &#160;Providers</text>
<polygon fill="#fb8072" stroke="transparent" points="1471.5,-10 1471.5,-30 1491.5,-30 1491.5,-10 1471.5,-10"/>
<text text-anchor="start" x="1495.23" y="-15.4" font-family="sans-serif" font-size="14.00"> &#160;Exports</text>
<g id="clust1" class="cluster">
<title>cluster_SuperadminModule</title>
<polygon fill="none" stroke="black" stroke-dasharray="1,5" points="8,-70 8,-268 2619,-268 2619,-70 8,-70"/>
</g>
<g id="clust2" class="cluster">
<title>cluster_SuperadminModule_declarations</title>
<polygon fill="none" stroke="black" points="490,-78 490,-130 2611,-130 2611,-78 490,-78"/>
</g>
<g id="clust18" class="cluster">
<title>cluster_SuperadminModule_providers</title>
<polygon fill="none" stroke="black" points="318,-78 318,-130 482,-130 482,-78 318,-78"/>
</g>
<g id="clust15" class="cluster">
<title>cluster_SuperadminModule_imports</title>
<polygon fill="none" stroke="black" points="16,-78 16,-130 310,-130 310,-78 16,-78"/>
</g>
<g id="clust16" class="cluster">
<title>cluster_SuperadminModule_exports</title>
<polygon fill="none" stroke="black" points="1208,-208 1208,-260 1376,-260 1376,-208 1208,-208"/>
</g>
<!-- AppConfigComponent -->
<g id="node1" class="node">
<title>AppConfigComponent</title>
<polygon fill="#ffffb3" stroke="black" points="2603.33,-122 2458.67,-122 2458.67,-86 2603.33,-86 2603.33,-122"/>
<text text-anchor="middle" x="2531" y="-99.8" font-family="Times,serif" font-size="14.00">AppConfigComponent</text>
</g>
<!-- SuperadminModule -->
<g id="node13" class="node">
<title>SuperadminModule</title>
<polygon fill="#8dd3c7" stroke="black" points="1355.7,-187 1352.7,-191 1331.7,-191 1328.7,-187 1228.3,-187 1228.3,-151 1355.7,-151 1355.7,-187"/>
<text text-anchor="middle" x="1292" y="-164.8" font-family="Times,serif" font-size="14.00">SuperadminModule</text>
</g>
<!-- AppConfigComponent&#45;&gt;SuperadminModule -->
<g id="edge1" class="edge">
<title>AppConfigComponent&#45;&gt;SuperadminModule</title>
<path fill="none" stroke="black" d="M2531,-122.32C2531,-145.66 2531,-183 2531,-183 2531,-183 1366,-183 1366,-183"/>
<polygon fill="black" stroke="black" points="1366.01,-179.5 1356,-183 1366,-186.5 1366.01,-179.5"/>
</g>
<!-- EditCustomTextComponent -->
<g id="node2" class="node">
<title>EditCustomTextComponent</title>
<polygon fill="#ffffb3" stroke="black" points="2440.89,-122 2267.11,-122 2267.11,-86 2440.89,-86 2440.89,-122"/>
<text text-anchor="middle" x="2354" y="-99.8" font-family="Times,serif" font-size="14.00">EditCustomTextComponent</text>
</g>
<!-- EditCustomTextComponent&#45;&gt;SuperadminModule -->
<g id="edge2" class="edge">
<title>EditCustomTextComponent&#45;&gt;SuperadminModule</title>
<path fill="none" stroke="black" d="M2354,-122.29C2354,-144.21 2354,-178 2354,-178 2354,-178 1365.65,-178 1365.65,-178"/>
<polygon fill="black" stroke="black" points="1365.65,-174.5 1355.65,-178 1365.65,-181.5 1365.65,-174.5"/>
</g>
<!-- EditCustomTextsComponent -->
<g id="node3" class="node">
<title>EditCustomTextsComponent</title>
<polygon fill="#ffffb3" stroke="black" points="2248.83,-122 2069.17,-122 2069.17,-86 2248.83,-86 2248.83,-122"/>
<text text-anchor="middle" x="2159" y="-99.8" font-family="Times,serif" font-size="14.00">EditCustomTextsComponent</text>
</g>
<!-- EditCustomTextsComponent&#45;&gt;SuperadminModule -->
<g id="edge3" class="edge">
<title>EditCustomTextsComponent&#45;&gt;SuperadminModule</title>
<path fill="none" stroke="black" d="M2159,-122.03C2159,-142.77 2159,-174 2159,-174 2159,-174 1365.75,-174 1365.75,-174"/>
<polygon fill="black" stroke="black" points="1365.75,-170.5 1355.75,-174 1365.75,-177.5 1365.75,-170.5"/>
</g>
<!-- EditworkspaceComponent -->
<g id="node4" class="node">
<title>EditworkspaceComponent</title>
<polygon fill="#ffffb3" stroke="black" points="2051.02,-122 1886.98,-122 1886.98,-86 2051.02,-86 2051.02,-122"/>
<text text-anchor="middle" x="1969" y="-99.8" font-family="Times,serif" font-size="14.00">EditworkspaceComponent</text>
</g>
<!-- EditworkspaceComponent&#45;&gt;SuperadminModule -->
<g id="edge4" class="edge">
<title>EditworkspaceComponent&#45;&gt;SuperadminModule</title>
<path fill="none" stroke="black" d="M1969,-122.11C1969,-141.34 1969,-169 1969,-169 1969,-169 1365.69,-169 1365.69,-169"/>
<polygon fill="black" stroke="black" points="1365.69,-165.5 1355.69,-169 1365.69,-172.5 1365.69,-165.5"/>
</g>
<!-- NewpasswordComponent -->
<g id="node5" class="node">
<title>NewpasswordComponent</title>
<polygon fill="#ffffb3" stroke="black" points="1868.13,-122 1707.87,-122 1707.87,-86 1868.13,-86 1868.13,-122"/>
<text text-anchor="middle" x="1788" y="-99.8" font-family="Times,serif" font-size="14.00">NewpasswordComponent</text>
</g>
<!-- NewpasswordComponent&#45;&gt;SuperadminModule -->
<g id="edge5" class="edge">
<title>NewpasswordComponent&#45;&gt;SuperadminModule</title>
<path fill="none" stroke="black" d="M1788,-122.3C1788,-140.27 1788,-165 1788,-165 1788,-165 1365.83,-165 1365.83,-165"/>
<polygon fill="black" stroke="black" points="1365.83,-161.5 1355.83,-165 1365.83,-168.5 1365.83,-161.5"/>
</g>
<!-- NewuserComponent -->
<g id="node6" class="node">
<title>NewuserComponent</title>
<polygon fill="#ffffb3" stroke="black" points="1689.58,-122 1558.42,-122 1558.42,-86 1689.58,-86 1689.58,-122"/>
<text text-anchor="middle" x="1624" y="-99.8" font-family="Times,serif" font-size="14.00">NewuserComponent</text>
</g>
<!-- NewuserComponent&#45;&gt;SuperadminModule -->
<g id="edge6" class="edge">
<title>NewuserComponent&#45;&gt;SuperadminModule</title>
<path fill="none" stroke="black" d="M1624,-122.03C1624,-138.4 1624,-160 1624,-160 1624,-160 1365.62,-160 1365.62,-160"/>
<polygon fill="black" stroke="black" points="1365.62,-156.5 1355.62,-160 1365.62,-163.5 1365.62,-156.5"/>
</g>
<!-- NewworkspaceComponent -->
<g id="node7" class="node">
<title>NewworkspaceComponent</title>
<polygon fill="#ffffb3" stroke="black" points="1540.62,-122 1373.38,-122 1373.38,-86 1540.62,-86 1540.62,-122"/>
<text text-anchor="middle" x="1457" y="-99.8" font-family="Times,serif" font-size="14.00">NewworkspaceComponent</text>
</g>
<!-- NewworkspaceComponent&#45;&gt;SuperadminModule -->
<g id="edge7" class="edge">
<title>NewworkspaceComponent&#45;&gt;SuperadminModule</title>
<path fill="none" stroke="black" d="M1457,-122.19C1457,-137.18 1457,-156 1457,-156 1457,-156 1365.79,-156 1365.79,-156"/>
<polygon fill="black" stroke="black" points="1365.79,-152.5 1355.79,-156 1365.79,-159.5 1365.79,-152.5"/>
</g>
<!-- SettingsComponent -->
<g id="node8" class="node">
<title>SettingsComponent</title>
<polygon fill="#ffffb3" stroke="black" points="1355.45,-122 1228.55,-122 1228.55,-86 1355.45,-86 1355.45,-122"/>
<text text-anchor="middle" x="1292" y="-99.8" font-family="Times,serif" font-size="14.00">SettingsComponent</text>
</g>
<!-- SettingsComponent&#45;&gt;SuperadminModule -->
<g id="edge8" class="edge">
<title>SettingsComponent&#45;&gt;SuperadminModule</title>
<path fill="none" stroke="black" d="M1292,-122.11C1292,-122.11 1292,-140.99 1292,-140.99"/>
<polygon fill="black" stroke="black" points="1288.5,-140.99 1292,-150.99 1295.5,-140.99 1288.5,-140.99"/>
</g>
<!-- SuperadminComponent -->
<g id="node9" class="node">
<title>SuperadminComponent</title>
<polygon fill="#ffffb3" stroke="black" points="1210.49,-122 1061.51,-122 1061.51,-86 1210.49,-86 1210.49,-122"/>
<text text-anchor="middle" x="1136" y="-99.8" font-family="Times,serif" font-size="14.00">SuperadminComponent</text>
</g>
<!-- SuperadminComponent&#45;&gt;SuperadminModule -->
<g id="edge9" class="edge">
<title>SuperadminComponent&#45;&gt;SuperadminModule</title>
<path fill="none" stroke="black" d="M1136,-122.19C1136,-137.18 1136,-156 1136,-156 1136,-156 1218.1,-156 1218.1,-156"/>
<polygon fill="black" stroke="black" points="1218.1,-159.5 1228.1,-156 1218.1,-152.5 1218.1,-159.5"/>
</g>
<!-- SuperadminPasswordRequestComponent -->
<g id="node10" class="node">
<title>SuperadminPasswordRequestComponent</title>
<polygon fill="#ffffb3" stroke="black" points="1043.74,-122 796.26,-122 796.26,-86 1043.74,-86 1043.74,-122"/>
<text text-anchor="middle" x="920" y="-99.8" font-family="Times,serif" font-size="14.00">SuperadminPasswordRequestComponent</text>
</g>
<!-- SuperadminPasswordRequestComponent&#45;&gt;SuperadminModule -->
<g id="edge10" class="edge">
<title>SuperadminPasswordRequestComponent&#45;&gt;SuperadminModule</title>
<path fill="none" stroke="black" d="M920,-122.03C920,-138.4 920,-160 920,-160 920,-160 1218.05,-160 1218.05,-160"/>
<polygon fill="black" stroke="black" points="1218.05,-163.5 1228.05,-160 1218.05,-156.5 1218.05,-163.5"/>
</g>
<!-- UsersComponent -->
<g id="node11" class="node">
<title>UsersComponent</title>
<polygon fill="#ffffb3" stroke="black" points="778.7,-122 665.3,-122 665.3,-86 778.7,-86 778.7,-122"/>
<text text-anchor="middle" x="722" y="-99.8" font-family="Times,serif" font-size="14.00">UsersComponent</text>
</g>
<!-- UsersComponent&#45;&gt;SuperadminModule -->
<g id="edge11" class="edge">
<title>UsersComponent&#45;&gt;SuperadminModule</title>
<path fill="none" stroke="black" d="M722,-122.3C722,-140.27 722,-165 722,-165 722,-165 1218.27,-165 1218.27,-165"/>
<polygon fill="black" stroke="black" points="1218.27,-168.5 1228.27,-165 1218.27,-161.5 1218.27,-168.5"/>
</g>
<!-- WorkspacesComponent -->
<g id="node12" class="node">
<title>WorkspacesComponent</title>
<polygon fill="#ffffb3" stroke="black" points="647.74,-122 498.26,-122 498.26,-86 647.74,-86 647.74,-122"/>
<text text-anchor="middle" x="573" y="-99.8" font-family="Times,serif" font-size="14.00">WorkspacesComponent</text>
</g>
<!-- WorkspacesComponent&#45;&gt;SuperadminModule -->
<g id="edge12" class="edge">
<title>WorkspacesComponent&#45;&gt;SuperadminModule</title>
<path fill="none" stroke="black" d="M573,-122.11C573,-141.34 573,-169 573,-169 573,-169 1218.19,-169 1218.19,-169"/>
<polygon fill="black" stroke="black" points="1218.19,-172.5 1228.19,-169 1218.19,-165.5 1218.19,-172.5"/>
</g>
<!-- SuperadminComponent  -->
<g id="node16" class="node">
<title>SuperadminComponent </title>
<polygon fill="#fb8072" stroke="black" points="1368.49,-252 1215.51,-252 1215.51,-216 1368.49,-216 1368.49,-252"/>
<text text-anchor="middle" x="1292" y="-229.8" font-family="Times,serif" font-size="14.00">SuperadminComponent </text>
</g>
<!-- SuperadminModule&#45;&gt;SuperadminComponent  -->
<g id="edge15" class="edge">
<title>SuperadminModule&#45;&gt;SuperadminComponent </title>
<path fill="none" stroke="black" stroke-dasharray="5,2" d="M1292,-187.11C1292,-187.11 1292,-205.99 1292,-205.99"/>
<polygon fill="black" stroke="black" points="1288.5,-205.99 1292,-215.99 1295.5,-205.99 1288.5,-205.99"/>
</g>
<!-- AlertModule -->
<g id="node14" class="node">
<title>AlertModule</title>
<polygon fill="#8dd3c7" stroke="black" points="302.31,-122 299.31,-126 278.31,-126 275.31,-122 213.69,-122 213.69,-86 302.31,-86 302.31,-122"/>
<text text-anchor="middle" x="258" y="-99.8" font-family="Times,serif" font-size="14.00">AlertModule</text>
</g>
<!-- AlertModule&#45;&gt;SuperadminModule -->
<g id="edge13" class="edge">
<title>AlertModule&#45;&gt;SuperadminModule</title>
<path fill="none" stroke="black" d="M258,-122.29C258,-144.21 258,-178 258,-178 258,-178 1218.1,-178 1218.1,-178"/>
<polygon fill="black" stroke="black" points="1218.1,-181.5 1228.1,-178 1218.1,-174.5 1218.1,-181.5"/>
</g>
<!-- SuperadminRoutingModule -->
<g id="node15" class="node">
<title>SuperadminRoutingModule</title>
<polygon fill="#8dd3c7" stroke="black" points="196.32,-122 193.32,-126 172.32,-126 169.32,-122 23.68,-122 23.68,-86 196.32,-86 196.32,-122"/>
<text text-anchor="middle" x="110" y="-99.8" font-family="Times,serif" font-size="14.00">SuperadminRoutingModule</text>
</g>
<!-- SuperadminRoutingModule&#45;&gt;SuperadminModule -->
<g id="edge14" class="edge">
<title>SuperadminRoutingModule&#45;&gt;SuperadminModule</title>
<path fill="none" stroke="black" d="M110,-122.32C110,-145.66 110,-183 110,-183 110,-183 1218.03,-183 1218.03,-183"/>
<polygon fill="black" stroke="black" points="1218.03,-186.5 1228.03,-183 1218.03,-179.5 1218.03,-186.5"/>
</g>
<!-- BackendService -->
<g id="node17" class="node">
<title>BackendService</title>
<ellipse fill="#fdb462" stroke="black" cx="400" cy="-104" rx="73.56" ry="18"/>
<text text-anchor="middle" x="400" y="-99.8" font-family="Times,serif" font-size="14.00">BackendService</text>
</g>
<!-- BackendService&#45;&gt;SuperadminModule -->
<g id="edge16" class="edge">
<title>BackendService&#45;&gt;SuperadminModule</title>
<path fill="none" stroke="black" d="M400,-122.03C400,-142.77 400,-174 400,-174 400,-174 1218.21,-174 1218.21,-174"/>
<polygon fill="black" stroke="black" points="1218.21,-177.5 1228.21,-174 1218.21,-170.5 1218.21,-177.5"/>
</g>
</g>
</svg>
