<?xml version="1.0" encoding="UTF-8" standalone="no"?>
<!DOCTYPE svg PUBLIC "-//W3C//DTD SVG 1.1//EN"
 "http://www.w3.org/Graphics/SVG/1.1/DTD/svg11.dtd">
<!-- Generated by graphviz version 2.47.3 (20210619.1520)
 -->
<!-- Title: dependencies Pages: 1 -->
<svg width="2529pt" height="247pt"
 viewBox="0.00 0.00 2529.00 246.80" xmlns="http://www.w3.org/2000/svg" xmlns:xlink="http://www.w3.org/1999/xlink">
<g id="graph0" class="graph" transform="scale(1 1) rotate(0) translate(4 242.8)">
<title>dependencies</title>
<polygon fill="white" stroke="transparent" points="-4,4 -4,-242.8 2525,-242.8 2525,4 -4,4"/>
<text text-anchor="middle" x="1260.5" y="-8.2" font-family="sans-serif" font-size="14.00">dependencies</text>
<g id="clust1" class="cluster">
<title>cluster_SuperadminModule</title>
<polygon fill="none" stroke="black" stroke-dasharray="1,5" points="8,-32.8 8,-230.8 2513,-230.8 2513,-32.8 8,-32.8"/>
</g>
<g id="clust18" class="cluster">
<title>cluster_SuperadminModule_providers</title>
<polygon fill="none" stroke="black" points="2341,-40.8 2341,-92.8 2505,-92.8 2505,-40.8 2341,-40.8"/>
</g>
<g id="clust16" class="cluster">
<title>cluster_SuperadminModule_exports</title>
<polygon fill="none" stroke="black" points="1178,-170.8 1178,-222.8 1346,-222.8 1346,-170.8 1178,-170.8"/>
</g>
<g id="clust2" class="cluster">
<title>cluster_SuperadminModule_declarations</title>
<polygon fill="none" stroke="black" points="212,-40.8 212,-92.8 2333,-92.8 2333,-40.8 212,-40.8"/>
</g>
<g id="clust15" class="cluster">
<title>cluster_SuperadminModule_imports</title>
<polygon fill="none" stroke="black" points="16,-40.8 16,-92.8 204,-92.8 204,-40.8 16,-40.8"/>
</g>
<!-- AppConfigComponent -->
<g id="node1" class="node">
<title>AppConfigComponent</title>
<polygon fill="#ffffb3" stroke="black" points="2325.33,-84.8 2180.67,-84.8 2180.67,-48.8 2325.33,-48.8 2325.33,-84.8"/>
<text text-anchor="middle" x="2253" y="-62.6" font-family="Times,serif" font-size="14.00">AppConfigComponent</text>
</g>
<!-- SuperadminModule -->
<g id="node13" class="node">
<title>SuperadminModule</title>
<polygon fill="#8dd3c7" stroke="black" points="1325.7,-149.8 1322.7,-153.8 1301.7,-153.8 1298.7,-149.8 1198.3,-149.8 1198.3,-113.8 1325.7,-113.8 1325.7,-149.8"/>
<text text-anchor="middle" x="1262" y="-127.6" font-family="Times,serif" font-size="14.00">SuperadminModule</text>
</g>
<!-- AppConfigComponent&#45;&gt;SuperadminModule -->
<g id="edge1" class="edge">
<title>AppConfigComponent&#45;&gt;SuperadminModule</title>
<path fill="none" stroke="black" d="M2253,-84.84C2253,-106.46 2253,-139.8 2253,-139.8 2253,-139.8 1335.88,-139.8 1335.88,-139.8"/>
<polygon fill="black" stroke="black" points="1335.88,-136.3 1325.88,-139.8 1335.88,-143.3 1335.88,-136.3"/>
</g>
<!-- EditCustomTextComponent -->
<g id="node2" class="node">
<title>EditCustomTextComponent</title>
<polygon fill="#ffffb3" stroke="black" points="2162.89,-84.8 1989.11,-84.8 1989.11,-48.8 2162.89,-48.8 2162.89,-84.8"/>
<text text-anchor="middle" x="2076" y="-62.6" font-family="Times,serif" font-size="14.00">EditCustomTextComponent</text>
</g>
<!-- EditCustomTextComponent&#45;&gt;SuperadminModule -->
<g id="edge2" class="edge">
<title>EditCustomTextComponent&#45;&gt;SuperadminModule</title>
<path fill="none" stroke="black" d="M2076,-85.02C2076,-105.17 2076,-134.8 2076,-134.8 2076,-134.8 1335.87,-134.8 1335.87,-134.8"/>
<polygon fill="black" stroke="black" points="1335.87,-131.3 1325.87,-134.8 1335.87,-138.3 1335.87,-131.3"/>
</g>
<!-- EditCustomTextsComponent -->
<g id="node3" class="node">
<title>EditCustomTextsComponent</title>
<polygon fill="#ffffb3" stroke="black" points="1970.83,-84.8 1791.17,-84.8 1791.17,-48.8 1970.83,-48.8 1970.83,-84.8"/>
<text text-anchor="middle" x="1881" y="-62.6" font-family="Times,serif" font-size="14.00">EditCustomTextsComponent</text>
</g>
<!-- EditCustomTextsComponent&#45;&gt;SuperadminModule -->
<g id="edge3" class="edge">
<title>EditCustomTextsComponent&#45;&gt;SuperadminModule</title>
<path fill="none" stroke="black" d="M1881,-85.02C1881,-103.63 1881,-129.8 1881,-129.8 1881,-129.8 1335.62,-129.8 1335.62,-129.8"/>
<polygon fill="black" stroke="black" points="1335.62,-126.3 1325.62,-129.8 1335.62,-133.3 1335.62,-126.3"/>
</g>
<!-- EditworkspaceComponent -->
<g id="node4" class="node">
<title>EditworkspaceComponent</title>
<polygon fill="#ffffb3" stroke="black" points="1773.02,-84.8 1608.98,-84.8 1608.98,-48.8 1773.02,-48.8 1773.02,-84.8"/>
<text text-anchor="middle" x="1691" y="-62.6" font-family="Times,serif" font-size="14.00">EditworkspaceComponent</text>
</g>
<!-- EditworkspaceComponent&#45;&gt;SuperadminModule -->
<g id="edge4" class="edge">
<title>EditworkspaceComponent&#45;&gt;SuperadminModule</title>
<path fill="none" stroke="black" d="M1691,-84.83C1691,-101.86 1691,-124.8 1691,-124.8 1691,-124.8 1335.76,-124.8 1335.76,-124.8"/>
<polygon fill="black" stroke="black" points="1335.76,-121.3 1325.76,-124.8 1335.76,-128.3 1335.76,-121.3"/>
</g>
<!-- NewpasswordComponent -->
<g id="node5" class="node">
<title>NewpasswordComponent</title>
<polygon fill="#ffffb3" stroke="black" points="1590.13,-84.8 1429.87,-84.8 1429.87,-48.8 1590.13,-48.8 1590.13,-84.8"/>
<text text-anchor="middle" x="1510" y="-62.6" font-family="Times,serif" font-size="14.00">NewpasswordComponent</text>
</g>
<!-- NewpasswordComponent&#45;&gt;SuperadminModule -->
<g id="edge5" class="edge">
<title>NewpasswordComponent&#45;&gt;SuperadminModule</title>
<path fill="none" stroke="black" d="M1510,-85.04C1510,-100.37 1510,-119.8 1510,-119.8 1510,-119.8 1335.87,-119.8 1335.87,-119.8"/>
<polygon fill="black" stroke="black" points="1335.87,-116.3 1325.87,-119.8 1335.87,-123.3 1335.87,-116.3"/>
</g>
<!-- NewuserComponent -->
<g id="node6" class="node">
<title>NewuserComponent</title>
<polygon fill="#ffffb3" stroke="black" points="1411.58,-84.8 1280.42,-84.8 1280.42,-48.8 1411.58,-48.8 1411.58,-84.8"/>
<text text-anchor="middle" x="1346" y="-62.6" font-family="Times,serif" font-size="14.00">NewuserComponent</text>
</g>
<!-- NewuserComponent&#45;&gt;SuperadminModule -->
<g id="edge6" class="edge">
<title>NewuserComponent&#45;&gt;SuperadminModule</title>
<path fill="none" stroke="black" d="M1303.03,-84.91C1303.03,-84.91 1303.03,-103.79 1303.03,-103.79"/>
<polygon fill="black" stroke="black" points="1299.53,-103.79 1303.03,-113.79 1306.53,-103.79 1299.53,-103.79"/>
</g>
<!-- NewworkspaceComponent -->
<g id="node7" class="node">
<title>NewworkspaceComponent</title>
<polygon fill="#ffffb3" stroke="black" points="1262.62,-84.8 1095.38,-84.8 1095.38,-48.8 1262.62,-48.8 1262.62,-84.8"/>
<text text-anchor="middle" x="1179" y="-62.6" font-family="Times,serif" font-size="14.00">NewworkspaceComponent</text>
</g>
<!-- NewworkspaceComponent&#45;&gt;SuperadminModule -->
<g id="edge7" class="edge">
<title>NewworkspaceComponent&#45;&gt;SuperadminModule</title>
<path fill="none" stroke="black" d="M1230.6,-84.91C1230.6,-84.91 1230.6,-103.79 1230.6,-103.79"/>
<polygon fill="black" stroke="black" points="1227.1,-103.79 1230.6,-113.79 1234.1,-103.79 1227.1,-103.79"/>
</g>
<!-- SettingsComponent -->
<g id="node8" class="node">
<title>SettingsComponent</title>
<polygon fill="#ffffb3" stroke="black" points="1077.45,-84.8 950.55,-84.8 950.55,-48.8 1077.45,-48.8 1077.45,-84.8"/>
<text text-anchor="middle" x="1014" y="-62.6" font-family="Times,serif" font-size="14.00">SettingsComponent</text>
</g>
<!-- SettingsComponent&#45;&gt;SuperadminModule -->
<g id="edge8" class="edge">
<title>SettingsComponent&#45;&gt;SuperadminModule</title>
<path fill="none" stroke="black" d="M1014,-85.04C1014,-100.37 1014,-119.8 1014,-119.8 1014,-119.8 1188.13,-119.8 1188.13,-119.8"/>
<polygon fill="black" stroke="black" points="1188.13,-123.3 1198.13,-119.8 1188.13,-116.3 1188.13,-123.3"/>
</g>
<!-- SuperadminComponent -->
<g id="node9" class="node">
<title>SuperadminComponent</title>
<polygon fill="#ffffb3" stroke="black" points="932.49,-84.8 783.51,-84.8 783.51,-48.8 932.49,-48.8 932.49,-84.8"/>
<text text-anchor="middle" x="858" y="-62.6" font-family="Times,serif" font-size="14.00">SuperadminComponent</text>
</g>
<!-- SuperadminComponent&#45;&gt;SuperadminModule -->
<g id="edge9" class="edge">
<title>SuperadminComponent&#45;&gt;SuperadminModule</title>
<path fill="none" stroke="black" d="M858,-84.83C858,-101.86 858,-124.8 858,-124.8 858,-124.8 1187.98,-124.8 1187.98,-124.8"/>
<polygon fill="black" stroke="black" points="1187.99,-128.3 1197.98,-124.8 1187.98,-121.3 1187.99,-128.3"/>
</g>
<!-- SuperadminPasswordRequestComponent -->
<g id="node10" class="node">
<title>SuperadminPasswordRequestComponent</title>
<polygon fill="#ffffb3" stroke="black" points="765.74,-84.8 518.26,-84.8 518.26,-48.8 765.74,-48.8 765.74,-84.8"/>
<text text-anchor="middle" x="642" y="-62.6" font-family="Times,serif" font-size="14.00">SuperadminPasswordRequestComponent</text>
</g>
<!-- SuperadminPasswordRequestComponent&#45;&gt;SuperadminModule -->
<g id="edge10" class="edge">
<title>SuperadminPasswordRequestComponent&#45;&gt;SuperadminModule</title>
<path fill="none" stroke="black" d="M642,-85.02C642,-103.63 642,-129.8 642,-129.8 642,-129.8 1188.27,-129.8 1188.27,-129.8"/>
<polygon fill="black" stroke="black" points="1188.27,-133.3 1198.27,-129.8 1188.27,-126.3 1188.27,-133.3"/>
</g>
<!-- UsersComponent -->
<g id="node11" class="node">
<title>UsersComponent</title>
<polygon fill="#ffffb3" stroke="black" points="500.7,-84.8 387.3,-84.8 387.3,-48.8 500.7,-48.8 500.7,-84.8"/>
<text text-anchor="middle" x="444" y="-62.6" font-family="Times,serif" font-size="14.00">UsersComponent</text>
</g>
<!-- UsersComponent&#45;&gt;SuperadminModule -->
<g id="edge11" class="edge">
<title>UsersComponent&#45;&gt;SuperadminModule</title>
<path fill="none" stroke="black" d="M444,-85.02C444,-105.17 444,-134.8 444,-134.8 444,-134.8 1188.15,-134.8 1188.15,-134.8"/>
<polygon fill="black" stroke="black" points="1188.15,-138.3 1198.15,-134.8 1188.15,-131.3 1188.15,-138.3"/>
</g>
<!-- WorkspacesComponent -->
<g id="node12" class="node">
<title>WorkspacesComponent</title>
<polygon fill="#ffffb3" stroke="black" points="369.74,-84.8 220.26,-84.8 220.26,-48.8 369.74,-48.8 369.74,-84.8"/>
<text text-anchor="middle" x="295" y="-62.6" font-family="Times,serif" font-size="14.00">WorkspacesComponent</text>
</g>
<!-- WorkspacesComponent&#45;&gt;SuperadminModule -->
<g id="edge12" class="edge">
<title>WorkspacesComponent&#45;&gt;SuperadminModule</title>
<path fill="none" stroke="black" d="M295,-84.84C295,-106.46 295,-139.8 295,-139.8 295,-139.8 1188.18,-139.8 1188.18,-139.8"/>
<polygon fill="black" stroke="black" points="1188.18,-143.3 1198.18,-139.8 1188.18,-136.3 1188.18,-143.3"/>
</g>
<!-- SuperadminComponent  -->
<g id="node15" class="node">
<title>SuperadminComponent </title>
<polygon fill="#fb8072" stroke="black" points="1338.49,-214.8 1185.51,-214.8 1185.51,-178.8 1338.49,-178.8 1338.49,-214.8"/>
<text text-anchor="middle" x="1262" y="-192.6" font-family="Times,serif" font-size="14.00">SuperadminComponent </text>
</g>
<!-- SuperadminModule&#45;&gt;SuperadminComponent  -->
<g id="edge14" class="edge">
<title>SuperadminModule&#45;&gt;SuperadminComponent </title>
<path fill="none" stroke="black" stroke-dasharray="5,2" d="M1262,-149.91C1262,-149.91 1262,-168.79 1262,-168.79"/>
<polygon fill="black" stroke="black" points="1258.5,-168.79 1262,-178.79 1265.5,-168.79 1258.5,-168.79"/>
</g>
<!-- SuperadminRoutingModule -->
<g id="node14" class="node">
<title>SuperadminRoutingModule</title>
<polygon fill="#8dd3c7" stroke="black" points="196.32,-84.8 193.32,-88.8 172.32,-88.8 169.32,-84.8 23.68,-84.8 23.68,-48.8 196.32,-48.8 196.32,-84.8"/>
<text text-anchor="middle" x="110" y="-62.6" font-family="Times,serif" font-size="14.00">SuperadminRoutingModule</text>
</g>
<!-- SuperadminRoutingModule&#45;&gt;SuperadminModule -->
<g id="edge13" class="edge">
<title>SuperadminRoutingModule&#45;&gt;SuperadminModule</title>
<path fill="none" stroke="black" d="M110,-84.89C110,-107.93 110,-144.8 110,-144.8 110,-144.8 1188.01,-144.8 1188.01,-144.8"/>
<polygon fill="black" stroke="black" points="1188.01,-148.3 1198.01,-144.8 1188.01,-141.3 1188.01,-148.3"/>
</g>
<!-- BackendService -->
<g id="node16" class="node">
<title>BackendService</title>
<ellipse fill="#fdb462" stroke="black" cx="2423" cy="-66.8" rx="73.56" ry="18"/>
<text text-anchor="middle" x="2423" y="-62.6" font-family="Times,serif" font-size="14.00">BackendService</text>
</g>
<!-- BackendService&#45;&gt;SuperadminModule -->
<g id="edge15" class="edge">
<title>BackendService&#45;&gt;SuperadminModule</title>
<path fill="none" stroke="black" d="M2423,-84.89C2423,-107.93 2423,-144.8 2423,-144.8 2423,-144.8 1335.66,-144.8 1335.66,-144.8"/>
<polygon fill="black" stroke="black" points="1335.66,-141.3 1325.66,-144.8 1335.66,-148.3 1335.66,-141.3"/>
</g>
</g>
</svg>
