<?xml version="1.0" encoding="UTF-8" standalone="no"?>
<!DOCTYPE svg PUBLIC "-//W3C//DTD SVG 1.1//EN"
 "http://www.w3.org/Graphics/SVG/1.1/DTD/svg11.dtd">
<!-- Generated by graphviz version 2.47.0 (20210316.0004)
 -->
<!-- Title: dependencies Pages: 1 -->
<svg width="2529pt" height="284pt"
 viewBox="0.00 0.00 2529.00 284.00" xmlns="http://www.w3.org/2000/svg" xmlns:xlink="http://www.w3.org/1999/xlink">
<g id="graph0" class="graph" transform="scale(1 1) rotate(0) translate(4 280)">
<title>dependencies</title>
<polygon fill="white" stroke="transparent" points="-4,4 -4,-280 2525,-280 2525,4 -4,4"/>
<text text-anchor="start" x="1239.51" y="-42.4" font-family="sans-serif" font-weight="bold" font-size="14.00">Legend</text>
<polygon fill="#ffffb3" stroke="transparent" points="1026.5,-10 1026.5,-30 1046.5,-30 1046.5,-10 1026.5,-10"/>
<text text-anchor="start" x="1050.13" y="-15.4" font-family="sans-serif" font-size="14.00"> &#160;Declarations</text>
<polygon fill="#8dd3c7" stroke="transparent" points="1139.5,-10 1139.5,-30 1159.5,-30 1159.5,-10 1139.5,-10"/>
<text text-anchor="start" x="1163.23" y="-15.4" font-family="sans-serif" font-size="14.00"> &#160;Module</text>
<polygon fill="#80b1d3" stroke="transparent" points="1225.5,-10 1225.5,-30 1245.5,-30 1245.5,-10 1225.5,-10"/>
<text text-anchor="start" x="1249.28" y="-15.4" font-family="sans-serif" font-size="14.00"> &#160;Bootstrap</text>
<polygon fill="#fdb462" stroke="transparent" points="1322.5,-10 1322.5,-30 1342.5,-30 1342.5,-10 1322.5,-10"/>
<text text-anchor="start" x="1346.17" y="-15.4" font-family="sans-serif" font-size="14.00"> &#160;Providers</text>
<polygon fill="#fb8072" stroke="transparent" points="1418.5,-10 1418.5,-30 1438.5,-30 1438.5,-10 1418.5,-10"/>
<text text-anchor="start" x="1442.23" y="-15.4" font-family="sans-serif" font-size="14.00"> &#160;Exports</text>
<g id="clust1" class="cluster">
<title>cluster_SuperadminModule</title>
<polygon fill="none" stroke="black" stroke-dasharray="1,5" points="8,-70 8,-268 2513,-268 2513,-70 8,-70"/>
</g>
<g id="clust15" class="cluster">
<title>cluster_SuperadminModule_imports</title>
<polygon fill="none" stroke="black" points="2317,-78 2317,-130 2505,-130 2505,-78 2317,-78"/>
</g>
<g id="clust2" class="cluster">
<title>cluster_SuperadminModule_declarations</title>
<polygon fill="none" stroke="black" points="188,-78 188,-130 2309,-130 2309,-78 188,-78"/>
</g>
<g id="clust18" class="cluster">
<title>cluster_SuperadminModule_providers</title>
<polygon fill="none" stroke="black" points="16,-78 16,-130 180,-130 180,-78 16,-78"/>
</g>
<g id="clust16" class="cluster">
<title>cluster_SuperadminModule_exports</title>
<polygon fill="none" stroke="black" points="1154,-208 1154,-260 1322,-260 1322,-208 1154,-208"/>
</g>
<!-- AppConfigComponent -->
<g id="node1" class="node">
<title>AppConfigComponent</title>
<polygon fill="#ffffb3" stroke="black" points="2301.33,-122 2156.67,-122 2156.67,-86 2301.33,-86 2301.33,-122"/>
<text text-anchor="middle" x="2229" y="-99.8" font-family="Times,serif" font-size="14.00">AppConfigComponent</text>
</g>
<!-- SuperadminModule -->
<g id="node13" class="node">
<title>SuperadminModule</title>
<polygon fill="#8dd3c7" stroke="black" points="1301.7,-187 1298.7,-191 1277.7,-191 1274.7,-187 1174.3,-187 1174.3,-151 1301.7,-151 1301.7,-187"/>
<text text-anchor="middle" x="1238" y="-164.8" font-family="Times,serif" font-size="14.00">SuperadminModule</text>
</g>
<!-- AppConfigComponent&#45;&gt;SuperadminModule -->
<g id="edge1" class="edge">
<title>AppConfigComponent&#45;&gt;SuperadminModule</title>
<path fill="none" stroke="black" d="M2229,-122.04C2229,-143.66 2229,-177 2229,-177 2229,-177 1311.88,-177 1311.88,-177"/>
<polygon fill="black" stroke="black" points="1311.88,-173.5 1301.88,-177 1311.88,-180.5 1311.88,-173.5"/>
</g>
<!-- EditCustomTextComponent -->
<g id="node2" class="node">
<title>EditCustomTextComponent</title>
<polygon fill="#ffffb3" stroke="black" points="2138.89,-122 1965.11,-122 1965.11,-86 2138.89,-86 2138.89,-122"/>
<text text-anchor="middle" x="2052" y="-99.8" font-family="Times,serif" font-size="14.00">EditCustomTextComponent</text>
</g>
<!-- EditCustomTextComponent&#45;&gt;SuperadminModule -->
<g id="edge2" class="edge">
<title>EditCustomTextComponent&#45;&gt;SuperadminModule</title>
<path fill="none" stroke="black" d="M2052,-122.22C2052,-142.37 2052,-172 2052,-172 2052,-172 1311.87,-172 1311.87,-172"/>
<polygon fill="black" stroke="black" points="1311.87,-168.5 1301.87,-172 1311.87,-175.5 1311.87,-168.5"/>
</g>
<!-- EditCustomTextsComponent -->
<g id="node3" class="node">
<title>EditCustomTextsComponent</title>
<polygon fill="#ffffb3" stroke="black" points="1946.83,-122 1767.17,-122 1767.17,-86 1946.83,-86 1946.83,-122"/>
<text text-anchor="middle" x="1857" y="-99.8" font-family="Times,serif" font-size="14.00">EditCustomTextsComponent</text>
</g>
<!-- EditCustomTextsComponent&#45;&gt;SuperadminModule -->
<g id="edge3" class="edge">
<title>EditCustomTextsComponent&#45;&gt;SuperadminModule</title>
<path fill="none" stroke="black" d="M1857,-122.22C1857,-140.83 1857,-167 1857,-167 1857,-167 1311.62,-167 1311.62,-167"/>
<polygon fill="black" stroke="black" points="1311.62,-163.5 1301.62,-167 1311.62,-170.5 1311.62,-163.5"/>
</g>
<!-- EditworkspaceComponent -->
<g id="node4" class="node">
<title>EditworkspaceComponent</title>
<polygon fill="#ffffb3" stroke="black" points="1749.02,-122 1584.98,-122 1584.98,-86 1749.02,-86 1749.02,-122"/>
<text text-anchor="middle" x="1667" y="-99.8" font-family="Times,serif" font-size="14.00">EditworkspaceComponent</text>
</g>
<!-- EditworkspaceComponent&#45;&gt;SuperadminModule -->
<g id="edge4" class="edge">
<title>EditworkspaceComponent&#45;&gt;SuperadminModule</title>
<path fill="none" stroke="black" d="M1667,-122.03C1667,-139.06 1667,-162 1667,-162 1667,-162 1311.76,-162 1311.76,-162"/>
<polygon fill="black" stroke="black" points="1311.76,-158.5 1301.76,-162 1311.76,-165.5 1311.76,-158.5"/>
</g>
<!-- NewpasswordComponent -->
<g id="node5" class="node">
<title>NewpasswordComponent</title>
<polygon fill="#ffffb3" stroke="black" points="1566.13,-122 1405.87,-122 1405.87,-86 1566.13,-86 1566.13,-122"/>
<text text-anchor="middle" x="1486" y="-99.8" font-family="Times,serif" font-size="14.00">NewpasswordComponent</text>
</g>
<!-- NewpasswordComponent&#45;&gt;SuperadminModule -->
<g id="edge5" class="edge">
<title>NewpasswordComponent&#45;&gt;SuperadminModule</title>
<path fill="none" stroke="black" d="M1486,-122.24C1486,-137.57 1486,-157 1486,-157 1486,-157 1311.87,-157 1311.87,-157"/>
<polygon fill="black" stroke="black" points="1311.87,-153.5 1301.87,-157 1311.87,-160.5 1311.87,-153.5"/>
</g>
<!-- NewuserComponent -->
<g id="node6" class="node">
<title>NewuserComponent</title>
<polygon fill="#ffffb3" stroke="black" points="1387.58,-122 1256.42,-122 1256.42,-86 1387.58,-86 1387.58,-122"/>
<text text-anchor="middle" x="1322" y="-99.8" font-family="Times,serif" font-size="14.00">NewuserComponent</text>
</g>
<!-- NewuserComponent&#45;&gt;SuperadminModule -->
<g id="edge6" class="edge">
<title>NewuserComponent&#45;&gt;SuperadminModule</title>
<path fill="none" stroke="black" d="M1279.03,-122.11C1279.03,-122.11 1279.03,-140.99 1279.03,-140.99"/>
<polygon fill="black" stroke="black" points="1275.53,-140.99 1279.03,-150.99 1282.53,-140.99 1275.53,-140.99"/>
</g>
<!-- NewworkspaceComponent -->
<g id="node7" class="node">
<title>NewworkspaceComponent</title>
<polygon fill="#ffffb3" stroke="black" points="1238.62,-122 1071.38,-122 1071.38,-86 1238.62,-86 1238.62,-122"/>
<text text-anchor="middle" x="1155" y="-99.8" font-family="Times,serif" font-size="14.00">NewworkspaceComponent</text>
</g>
<!-- NewworkspaceComponent&#45;&gt;SuperadminModule -->
<g id="edge7" class="edge">
<title>NewworkspaceComponent&#45;&gt;SuperadminModule</title>
<path fill="none" stroke="black" d="M1206.6,-122.11C1206.6,-122.11 1206.6,-140.99 1206.6,-140.99"/>
<polygon fill="black" stroke="black" points="1203.1,-140.99 1206.6,-150.99 1210.1,-140.99 1203.1,-140.99"/>
</g>
<!-- SettingsComponent -->
<g id="node8" class="node">
<title>SettingsComponent</title>
<polygon fill="#ffffb3" stroke="black" points="1053.45,-122 926.55,-122 926.55,-86 1053.45,-86 1053.45,-122"/>
<text text-anchor="middle" x="990" y="-99.8" font-family="Times,serif" font-size="14.00">SettingsComponent</text>
</g>
<!-- SettingsComponent&#45;&gt;SuperadminModule -->
<g id="edge8" class="edge">
<title>SettingsComponent&#45;&gt;SuperadminModule</title>
<path fill="none" stroke="black" d="M990,-122.24C990,-137.57 990,-157 990,-157 990,-157 1164.13,-157 1164.13,-157"/>
<polygon fill="black" stroke="black" points="1164.13,-160.5 1174.13,-157 1164.13,-153.5 1164.13,-160.5"/>
</g>
<!-- SuperadminComponent -->
<g id="node9" class="node">
<title>SuperadminComponent</title>
<polygon fill="#ffffb3" stroke="black" points="908.49,-122 759.51,-122 759.51,-86 908.49,-86 908.49,-122"/>
<text text-anchor="middle" x="834" y="-99.8" font-family="Times,serif" font-size="14.00">SuperadminComponent</text>
</g>
<!-- SuperadminComponent&#45;&gt;SuperadminModule -->
<g id="edge9" class="edge">
<title>SuperadminComponent&#45;&gt;SuperadminModule</title>
<path fill="none" stroke="black" d="M834,-122.03C834,-139.06 834,-162 834,-162 834,-162 1163.98,-162 1163.98,-162"/>
<polygon fill="black" stroke="black" points="1163.99,-165.5 1173.98,-162 1163.98,-158.5 1163.99,-165.5"/>
</g>
<!-- SuperadminPasswordRequestComponent -->
<g id="node10" class="node">
<title>SuperadminPasswordRequestComponent</title>
<polygon fill="#ffffb3" stroke="black" points="741.74,-122 494.26,-122 494.26,-86 741.74,-86 741.74,-122"/>
<text text-anchor="middle" x="618" y="-99.8" font-family="Times,serif" font-size="14.00">SuperadminPasswordRequestComponent</text>
</g>
<!-- SuperadminPasswordRequestComponent&#45;&gt;SuperadminModule -->
<g id="edge10" class="edge">
<title>SuperadminPasswordRequestComponent&#45;&gt;SuperadminModule</title>
<path fill="none" stroke="black" d="M618,-122.22C618,-140.83 618,-167 618,-167 618,-167 1164.27,-167 1164.27,-167"/>
<polygon fill="black" stroke="black" points="1164.27,-170.5 1174.27,-167 1164.27,-163.5 1164.27,-170.5"/>
</g>
<!-- UsersComponent -->
<g id="node11" class="node">
<title>UsersComponent</title>
<polygon fill="#ffffb3" stroke="black" points="476.7,-122 363.3,-122 363.3,-86 476.7,-86 476.7,-122"/>
<text text-anchor="middle" x="420" y="-99.8" font-family="Times,serif" font-size="14.00">UsersComponent</text>
</g>
<!-- UsersComponent&#45;&gt;SuperadminModule -->
<g id="edge11" class="edge">
<title>UsersComponent&#45;&gt;SuperadminModule</title>
<path fill="none" stroke="black" d="M420,-122.22C420,-142.37 420,-172 420,-172 420,-172 1164.15,-172 1164.15,-172"/>
<polygon fill="black" stroke="black" points="1164.15,-175.5 1174.15,-172 1164.15,-168.5 1164.15,-175.5"/>
</g>
<!-- WorkspacesComponent -->
<g id="node12" class="node">
<title>WorkspacesComponent</title>
<polygon fill="#ffffb3" stroke="black" points="345.74,-122 196.26,-122 196.26,-86 345.74,-86 345.74,-122"/>
<text text-anchor="middle" x="271" y="-99.8" font-family="Times,serif" font-size="14.00">WorkspacesComponent</text>
</g>
<!-- WorkspacesComponent&#45;&gt;SuperadminModule -->
<g id="edge12" class="edge">
<title>WorkspacesComponent&#45;&gt;SuperadminModule</title>
<path fill="none" stroke="black" d="M271,-122.04C271,-143.66 271,-177 271,-177 271,-177 1164.18,-177 1164.18,-177"/>
<polygon fill="black" stroke="black" points="1164.18,-180.5 1174.18,-177 1164.18,-173.5 1164.18,-180.5"/>
</g>
<!-- SuperadminComponent  -->
<g id="node15" class="node">
<title>SuperadminComponent </title>
<polygon fill="#fb8072" stroke="black" points="1314.49,-252 1161.51,-252 1161.51,-216 1314.49,-216 1314.49,-252"/>
<text text-anchor="middle" x="1238" y="-229.8" font-family="Times,serif" font-size="14.00">SuperadminComponent </text>
</g>
<!-- SuperadminModule&#45;&gt;SuperadminComponent  -->
<g id="edge14" class="edge">
<title>SuperadminModule&#45;&gt;SuperadminComponent </title>
<path fill="none" stroke="black" stroke-dasharray="5,2" d="M1238,-187.11C1238,-187.11 1238,-205.99 1238,-205.99"/>
<polygon fill="black" stroke="black" points="1234.5,-205.99 1238,-215.99 1241.5,-205.99 1234.5,-205.99"/>
</g>
<!-- SuperadminRoutingModule -->
<g id="node14" class="node">
<title>SuperadminRoutingModule</title>
<polygon fill="#8dd3c7" stroke="black" points="2497.32,-122 2494.32,-126 2473.32,-126 2470.32,-122 2324.68,-122 2324.68,-86 2497.32,-86 2497.32,-122"/>
<text text-anchor="middle" x="2411" y="-99.8" font-family="Times,serif" font-size="14.00">SuperadminRoutingModule</text>
</g>
<!-- SuperadminRoutingModule&#45;&gt;SuperadminModule -->
<g id="edge13" class="edge">
<title>SuperadminRoutingModule&#45;&gt;SuperadminModule</title>
<path fill="none" stroke="black" d="M2411,-122.09C2411,-145.13 2411,-182 2411,-182 2411,-182 1311.9,-182 1311.9,-182"/>
<polygon fill="black" stroke="black" points="1311.9,-178.5 1301.9,-182 1311.9,-185.5 1311.9,-178.5"/>
</g>
<!-- BackendService -->
<g id="node16" class="node">
<title>BackendService</title>
<ellipse fill="#fdb462" stroke="black" cx="98" cy="-104" rx="73.56" ry="18"/>
<text text-anchor="middle" x="98" y="-99.8" font-family="Times,serif" font-size="14.00">BackendService</text>
</g>
<!-- BackendService&#45;&gt;SuperadminModule -->
<g id="edge15" class="edge">
<title>BackendService&#45;&gt;SuperadminModule</title>
<path fill="none" stroke="black" d="M98,-122.09C98,-145.13 98,-182 98,-182 98,-182 1164.27,-182 1164.27,-182"/>
<polygon fill="black" stroke="black" points="1164.27,-185.5 1174.27,-182 1164.27,-178.5 1164.27,-185.5"/>
</g>
</g>
</svg>
