<?xml version="1.0" encoding="UTF-8" standalone="no"?>
<!DOCTYPE svg PUBLIC "-//W3C//DTD SVG 1.1//EN"
 "http://www.w3.org/Graphics/SVG/1.1/DTD/svg11.dtd">
<!-- Generated by graphviz version 2.47.0 (20210316.0004)
 -->
<!-- Title: dependencies Pages: 1 -->
<svg width="1917pt" height="211pt"
 viewBox="0.00 0.00 1917.00 211.00" xmlns="http://www.w3.org/2000/svg" xmlns:xlink="http://www.w3.org/1999/xlink">
<g id="graph0" class="graph" transform="scale(1 1) rotate(0) translate(4 207)">
<title>dependencies</title>
<polygon fill="white" stroke="transparent" points="-4,4 -4,-207 1913,-207 1913,4 -4,4"/>
<text text-anchor="start" x="933.51" y="-42.4" font-family="sans-serif" font-weight="bold" font-size="14.00">Legend</text>
<polygon fill="#ffffb3" stroke="transparent" points="720.5,-10 720.5,-30 740.5,-30 740.5,-10 720.5,-10"/>
<text text-anchor="start" x="744.13" y="-15.4" font-family="sans-serif" font-size="14.00"> &#160;Declarations</text>
<polygon fill="#8dd3c7" stroke="transparent" points="833.5,-10 833.5,-30 853.5,-30 853.5,-10 833.5,-10"/>
<text text-anchor="start" x="857.23" y="-15.4" font-family="sans-serif" font-size="14.00"> &#160;Module</text>
<polygon fill="#80b1d3" stroke="transparent" points="919.5,-10 919.5,-30 939.5,-30 939.5,-10 919.5,-10"/>
<text text-anchor="start" x="943.28" y="-15.4" font-family="sans-serif" font-size="14.00"> &#160;Bootstrap</text>
<polygon fill="#fdb462" stroke="transparent" points="1016.5,-10 1016.5,-30 1036.5,-30 1036.5,-10 1016.5,-10"/>
<text text-anchor="start" x="1040.17" y="-15.4" font-family="sans-serif" font-size="14.00"> &#160;Providers</text>
<polygon fill="#fb8072" stroke="transparent" points="1112.5,-10 1112.5,-30 1132.5,-30 1132.5,-10 1112.5,-10"/>
<text text-anchor="start" x="1136.23" y="-15.4" font-family="sans-serif" font-size="14.00"> &#160;Exports</text>
<g id="clust1" class="cluster">
<title>cluster_SysCheckModule</title>
<polygon fill="none" stroke="black" stroke-dasharray="1,5" points="8,-70 8,-195 1901,-195 1901,-70 8,-70"/>
</g>
<g id="clust2" class="cluster">
<title>cluster_SysCheckModule_declarations</title>
<polygon fill="none" stroke="black" points="584,-78 584,-130 1893,-130 1893,-78 584,-78"/>
</g>
<g id="clust14" class="cluster">
<title>cluster_SysCheckModule_providers</title>
<polygon fill="none" stroke="black" points="200,-78 200,-130 576,-130 576,-78 200,-78"/>
</g>
<g id="clust11" class="cluster">
<title>cluster_SysCheckModule_imports</title>
<polygon fill="none" stroke="black" points="16,-78 16,-130 192,-130 192,-78 16,-78"/>
</g>
<!-- NetworkCheckComponent -->
<g id="node1" class="node">
<title>NetworkCheckComponent</title>
<polygon fill="#ffffb3" stroke="black" points="1885.08,-122 1718.92,-122 1718.92,-86 1885.08,-86 1885.08,-122"/>
<text text-anchor="middle" x="1802" y="-99.8" font-family="Times,serif" font-size="14.00">NetworkCheckComponent</text>
</g>
<!-- SysCheckModule -->
<g id="node9" class="node">
<title>SysCheckModule</title>
<polygon fill="#8dd3c7" stroke="black" points="1042.54,-187 1039.54,-191 1018.54,-191 1015.54,-187 927.46,-187 927.46,-151 1042.54,-151 1042.54,-187"/>
<text text-anchor="middle" x="985" y="-164.8" font-family="Times,serif" font-size="14.00">SysCheckModule</text>
</g>
<!-- NetworkCheckComponent&#45;&gt;SysCheckModule -->
<g id="edge1" class="edge">
<title>NetworkCheckComponent&#45;&gt;SysCheckModule</title>
<path fill="none" stroke="black" d="M1802,-122.09C1802,-145.13 1802,-182 1802,-182 1802,-182 1052.78,-182 1052.78,-182"/>
<polygon fill="black" stroke="black" points="1052.78,-178.5 1042.78,-182 1052.78,-185.5 1052.78,-178.5"/>
</g>
<!-- QuestionnaireComponent -->
<g id="node2" class="node">
<title>QuestionnaireComponent</title>
<polygon fill="#ffffb3" stroke="black" points="1700.86,-122 1541.14,-122 1541.14,-86 1700.86,-86 1700.86,-122"/>
<text text-anchor="middle" x="1621" y="-99.8" font-family="Times,serif" font-size="14.00">QuestionnaireComponent</text>
</g>
<!-- QuestionnaireComponent&#45;&gt;SysCheckModule -->
<g id="edge2" class="edge">
<title>QuestionnaireComponent&#45;&gt;SysCheckModule</title>
<path fill="none" stroke="black" d="M1621,-122.28C1621,-143.32 1621,-175 1621,-175 1621,-175 1052.56,-175 1052.56,-175"/>
<polygon fill="black" stroke="black" points="1052.56,-171.5 1042.56,-175 1052.56,-178.5 1052.56,-171.5"/>
</g>
<!-- ReportComponent -->
<g id="node3" class="node">
<title>ReportComponent</title>
<polygon fill="#ffffb3" stroke="black" points="1522.94,-122 1403.06,-122 1403.06,-86 1522.94,-86 1522.94,-122"/>
<text text-anchor="middle" x="1463" y="-99.8" font-family="Times,serif" font-size="14.00">ReportComponent</text>
</g>
<!-- ReportComponent&#45;&gt;SysCheckModule -->
<g id="edge3" class="edge">
<title>ReportComponent&#45;&gt;SysCheckModule</title>
<path fill="none" stroke="black" d="M1463,-122.11C1463,-141.34 1463,-169 1463,-169 1463,-169 1052.66,-169 1052.66,-169"/>
<polygon fill="black" stroke="black" points="1052.66,-165.5 1042.66,-169 1052.66,-172.5 1052.66,-165.5"/>
</g>
<!-- SaveReportComponent -->
<g id="node4" class="node">
<title>SaveReportComponent</title>
<polygon fill="#ffffb3" stroke="black" points="1385.15,-122 1238.85,-122 1238.85,-86 1385.15,-86 1385.15,-122"/>
<text text-anchor="middle" x="1312" y="-99.8" font-family="Times,serif" font-size="14.00">SaveReportComponent</text>
</g>
<!-- SaveReportComponent&#45;&gt;SysCheckModule -->
<g id="edge4" class="edge">
<title>SaveReportComponent&#45;&gt;SysCheckModule</title>
<path fill="none" stroke="black" d="M1312,-122.02C1312,-139.37 1312,-163 1312,-163 1312,-163 1052.71,-163 1052.71,-163"/>
<polygon fill="black" stroke="black" points="1052.71,-159.5 1042.71,-163 1052.71,-166.5 1052.71,-159.5"/>
</g>
<!-- SysCheckComponent -->
<g id="node5" class="node">
<title>SysCheckComponent</title>
<polygon fill="#ffffb3" stroke="black" points="1220.83,-122 1083.17,-122 1083.17,-86 1220.83,-86 1220.83,-122"/>
<text text-anchor="middle" x="1152" y="-99.8" font-family="Times,serif" font-size="14.00">SysCheckComponent</text>
</g>
<!-- SysCheckComponent&#45;&gt;SysCheckModule -->
<g id="edge5" class="edge">
<title>SysCheckComponent&#45;&gt;SysCheckModule</title>
<path fill="none" stroke="black" d="M1152,-122.24C1152,-137.57 1152,-157 1152,-157 1152,-157 1052.94,-157 1052.94,-157"/>
<polygon fill="black" stroke="black" points="1052.94,-153.5 1042.94,-157 1052.94,-160.5 1052.94,-153.5"/>
</g>
<!-- TcSpeedChartComponent -->
<g id="node6" class="node">
<title>TcSpeedChartComponent</title>
<polygon fill="#ffffb3" stroke="black" points="1065.91,-122 904.09,-122 904.09,-86 1065.91,-86 1065.91,-122"/>
<text text-anchor="middle" x="985" y="-99.8" font-family="Times,serif" font-size="14.00">TcSpeedChartComponent</text>
</g>
<!-- TcSpeedChartComponent&#45;&gt;SysCheckModule -->
<g id="edge6" class="edge">
<title>TcSpeedChartComponent&#45;&gt;SysCheckModule</title>
<path fill="none" stroke="black" d="M985,-122.11C985,-122.11 985,-140.99 985,-140.99"/>
<polygon fill="black" stroke="black" points="981.5,-140.99 985,-150.99 988.5,-140.99 981.5,-140.99"/>
</g>
<!-- UnitCheckComponent -->
<g id="node7" class="node">
<title>UnitCheckComponent</title>
<polygon fill="#ffffb3" stroke="black" points="885.99,-122 744.01,-122 744.01,-86 885.99,-86 885.99,-122"/>
<text text-anchor="middle" x="815" y="-99.8" font-family="Times,serif" font-size="14.00">UnitCheckComponent</text>
</g>
<!-- UnitCheckComponent&#45;&gt;SysCheckModule -->
<g id="edge7" class="edge">
<title>UnitCheckComponent&#45;&gt;SysCheckModule</title>
<path fill="none" stroke="black" d="M815,-122.24C815,-137.57 815,-157 815,-157 815,-157 917.45,-157 917.45,-157"/>
<polygon fill="black" stroke="black" points="917.45,-160.5 927.45,-157 917.45,-153.5 917.45,-160.5"/>
</g>
<!-- WelcomeComponent -->
<g id="node8" class="node">
<title>WelcomeComponent</title>
<polygon fill="#ffffb3" stroke="black" points="726.47,-122 591.53,-122 591.53,-86 726.47,-86 726.47,-122"/>
<text text-anchor="middle" x="659" y="-99.8" font-family="Times,serif" font-size="14.00">WelcomeComponent</text>
</g>
<!-- WelcomeComponent&#45;&gt;SysCheckModule -->
<g id="edge8" class="edge">
<title>WelcomeComponent&#45;&gt;SysCheckModule</title>
<path fill="none" stroke="black" d="M659,-122.02C659,-139.37 659,-163 659,-163 659,-163 917.09,-163 917.09,-163"/>
<polygon fill="black" stroke="black" points="917.09,-166.5 927.09,-163 917.09,-159.5 917.09,-166.5"/>
</g>
<!-- SysCheckRoutingModule -->
<g id="node10" class="node">
<title>SysCheckRoutingModule</title>
<polygon fill="#8dd3c7" stroke="black" points="184.16,-122 181.16,-126 160.16,-126 157.16,-122 23.84,-122 23.84,-86 184.16,-86 184.16,-122"/>
<text text-anchor="middle" x="104" y="-99.8" font-family="Times,serif" font-size="14.00">SysCheckRoutingModule</text>
</g>
<!-- SysCheckRoutingModule&#45;&gt;SysCheckModule -->
<g id="edge9" class="edge">
<title>SysCheckRoutingModule&#45;&gt;SysCheckModule</title>
<path fill="none" stroke="black" d="M104,-122.09C104,-145.13 104,-182 104,-182 104,-182 917.2,-182 917.2,-182"/>
<polygon fill="black" stroke="black" points="917.2,-185.5 927.2,-182 917.2,-178.5 917.2,-185.5"/>
</g>
<!-- BackendService -->
<g id="node11" class="node">
<title>BackendService</title>
<ellipse fill="#fdb462" stroke="black" cx="494" cy="-104" rx="73.56" ry="18"/>
<text text-anchor="middle" x="494" y="-99.8" font-family="Times,serif" font-size="14.00">BackendService</text>
</g>
<!-- BackendService&#45;&gt;SysCheckModule -->
<g id="edge10" class="edge">
<title>BackendService&#45;&gt;SysCheckModule</title>
<path fill="none" stroke="black" d="M494,-122.11C494,-141.34 494,-169 494,-169 494,-169 917.23,-169 917.23,-169"/>
<polygon fill="black" stroke="black" points="917.23,-172.5 927.23,-169 917.23,-165.5 917.23,-172.5"/>
</g>
<!-- SysCheckDataService -->
<g id="node12" class="node">
<title>SysCheckDataService</title>
<ellipse fill="#fdb462" stroke="black" cx="305" cy="-104" rx="96.69" ry="18"/>
<text text-anchor="middle" x="305" y="-99.8" font-family="Times,serif" font-size="14.00">SysCheckDataService</text>
</g>
<!-- SysCheckDataService&#45;&gt;SysCheckModule -->
<g id="edge11" class="edge">
<title>SysCheckDataService&#45;&gt;SysCheckModule</title>
<path fill="none" stroke="black" d="M305,-122.28C305,-143.32 305,-175 305,-175 305,-175 917.32,-175 917.32,-175"/>
<polygon fill="black" stroke="black" points="917.32,-178.5 927.32,-175 917.32,-171.5 917.32,-178.5"/>
</g>
</g>
</svg>
