<?xml version="1.0" encoding="UTF-8" standalone="no"?>
<!DOCTYPE svg PUBLIC "-//W3C//DTD SVG 1.1//EN"
 "http://www.w3.org/Graphics/SVG/1.1/DTD/svg11.dtd">
<!-- Generated by graphviz version 2.47.3 (20210619.1520)
 -->
<!-- Title: dependencies Pages: 1 -->
<svg width="1917pt" height="174pt"
 viewBox="0.00 0.00 1917.00 173.80" xmlns="http://www.w3.org/2000/svg" xmlns:xlink="http://www.w3.org/1999/xlink">
<g id="graph0" class="graph" transform="scale(1 1) rotate(0) translate(4 169.8)">
<title>dependencies</title>
<polygon fill="white" stroke="transparent" points="-4,4 -4,-169.8 1913,-169.8 1913,4 -4,4"/>
<text text-anchor="middle" x="954.5" y="-8.2" font-family="sans-serif" font-size="14.00">dependencies</text>
<g id="clust1" class="cluster">
<title>cluster_SysCheckModule</title>
<polygon fill="none" stroke="black" stroke-dasharray="1,5" points="8,-32.8 8,-157.8 1901,-157.8 1901,-32.8 8,-32.8"/>
</g>
<g id="clust14" class="cluster">
<title>cluster_SysCheckModule_providers</title>
<polygon fill="none" stroke="black" points="1517,-40.8 1517,-92.8 1893,-92.8 1893,-40.8 1517,-40.8"/>
</g>
<g id="clust2" class="cluster">
<title>cluster_SysCheckModule_declarations</title>
<polygon fill="none" stroke="black" points="200,-40.8 200,-92.8 1509,-92.8 1509,-40.8 200,-40.8"/>
</g>
<g id="clust11" class="cluster">
<title>cluster_SysCheckModule_imports</title>
<polygon fill="none" stroke="black" points="16,-40.8 16,-92.8 192,-92.8 192,-40.8 16,-40.8"/>
</g>
<!-- NetworkCheckComponent -->
<g id="node1" class="node">
<title>NetworkCheckComponent</title>
<polygon fill="#ffffb3" stroke="black" points="1501.08,-84.8 1334.92,-84.8 1334.92,-48.8 1501.08,-48.8 1501.08,-84.8"/>
<text text-anchor="middle" x="1418" y="-62.6" font-family="Times,serif" font-size="14.00">NetworkCheckComponent</text>
</g>
<!-- SysCheckModule -->
<g id="node9" class="node">
<title>SysCheckModule</title>
<polygon fill="#8dd3c7" stroke="black" points="985.54,-149.8 982.54,-153.8 961.54,-153.8 958.54,-149.8 870.46,-149.8 870.46,-113.8 985.54,-113.8 985.54,-149.8"/>
<text text-anchor="middle" x="928" y="-127.6" font-family="Times,serif" font-size="14.00">SysCheckModule</text>
</g>
<!-- NetworkCheckComponent&#45;&gt;SysCheckModule -->
<g id="edge1" class="edge">
<title>NetworkCheckComponent&#45;&gt;SysCheckModule</title>
<path fill="none" stroke="black" d="M1418,-84.91C1418,-104.14 1418,-131.8 1418,-131.8 1418,-131.8 995.65,-131.8 995.65,-131.8"/>
<polygon fill="black" stroke="black" points="995.65,-128.3 985.65,-131.8 995.65,-135.3 995.65,-128.3"/>
</g>
<!-- QuestionnaireComponent -->
<g id="node2" class="node">
<title>QuestionnaireComponent</title>
<polygon fill="#ffffb3" stroke="black" points="1316.86,-84.8 1157.14,-84.8 1157.14,-48.8 1316.86,-48.8 1316.86,-84.8"/>
<text text-anchor="middle" x="1237" y="-62.6" font-family="Times,serif" font-size="14.00">QuestionnaireComponent</text>
</g>
<!-- QuestionnaireComponent&#45;&gt;SysCheckModule -->
<g id="edge2" class="edge">
<title>QuestionnaireComponent&#45;&gt;SysCheckModule</title>
<path fill="none" stroke="black" d="M1237,-84.82C1237,-102.17 1237,-125.8 1237,-125.8 1237,-125.8 995.76,-125.8 995.76,-125.8"/>
<polygon fill="black" stroke="black" points="995.76,-122.3 985.76,-125.8 995.76,-129.3 995.76,-122.3"/>
</g>
<!-- ReportComponent -->
<g id="node3" class="node">
<title>ReportComponent</title>
<polygon fill="#ffffb3" stroke="black" points="1138.94,-84.8 1019.06,-84.8 1019.06,-48.8 1138.94,-48.8 1138.94,-84.8"/>
<text text-anchor="middle" x="1079" y="-62.6" font-family="Times,serif" font-size="14.00">ReportComponent</text>
</g>
<!-- ReportComponent&#45;&gt;SysCheckModule -->
<g id="edge3" class="edge">
<title>ReportComponent&#45;&gt;SysCheckModule</title>
<path fill="none" stroke="black" d="M1079,-85.04C1079,-100.37 1079,-119.8 1079,-119.8 1079,-119.8 995.95,-119.8 995.95,-119.8"/>
<polygon fill="black" stroke="black" points="995.95,-116.3 985.95,-119.8 995.95,-123.3 995.95,-116.3"/>
</g>
<!-- SaveReportComponent -->
<g id="node4" class="node">
<title>SaveReportComponent</title>
<polygon fill="#ffffb3" stroke="black" points="1001.15,-84.8 854.85,-84.8 854.85,-48.8 1001.15,-48.8 1001.15,-84.8"/>
<text text-anchor="middle" x="928" y="-62.6" font-family="Times,serif" font-size="14.00">SaveReportComponent</text>
</g>
<!-- SaveReportComponent&#45;&gt;SysCheckModule -->
<g id="edge4" class="edge">
<title>SaveReportComponent&#45;&gt;SysCheckModule</title>
<path fill="none" stroke="black" d="M928,-84.91C928,-84.91 928,-103.79 928,-103.79"/>
<polygon fill="black" stroke="black" points="924.5,-103.79 928,-113.79 931.5,-103.79 924.5,-103.79"/>
</g>
<!-- SysCheckComponent -->
<g id="node5" class="node">
<title>SysCheckComponent</title>
<polygon fill="#ffffb3" stroke="black" points="836.83,-84.8 699.17,-84.8 699.17,-48.8 836.83,-48.8 836.83,-84.8"/>
<text text-anchor="middle" x="768" y="-62.6" font-family="Times,serif" font-size="14.00">SysCheckComponent</text>
</g>
<!-- SysCheckComponent&#45;&gt;SysCheckModule -->
<g id="edge5" class="edge">
<title>SysCheckComponent&#45;&gt;SysCheckModule</title>
<path fill="none" stroke="black" d="M768,-85.04C768,-100.37 768,-119.8 768,-119.8 768,-119.8 860.24,-119.8 860.24,-119.8"/>
<polygon fill="black" stroke="black" points="860.24,-123.3 870.24,-119.8 860.24,-116.3 860.24,-123.3"/>
</g>
<!-- TcSpeedChartComponent -->
<g id="node6" class="node">
<title>TcSpeedChartComponent</title>
<polygon fill="#ffffb3" stroke="black" points="681.91,-84.8 520.09,-84.8 520.09,-48.8 681.91,-48.8 681.91,-84.8"/>
<text text-anchor="middle" x="601" y="-62.6" font-family="Times,serif" font-size="14.00">TcSpeedChartComponent</text>
</g>
<!-- TcSpeedChartComponent&#45;&gt;SysCheckModule -->
<g id="edge6" class="edge">
<title>TcSpeedChartComponent&#45;&gt;SysCheckModule</title>
<path fill="none" stroke="black" d="M601,-84.82C601,-102.17 601,-125.8 601,-125.8 601,-125.8 860.29,-125.8 860.29,-125.8"/>
<polygon fill="black" stroke="black" points="860.29,-129.3 870.29,-125.8 860.29,-122.3 860.29,-129.3"/>
</g>
<!-- UnitCheckComponent -->
<g id="node7" class="node">
<title>UnitCheckComponent</title>
<polygon fill="#ffffb3" stroke="black" points="501.99,-84.8 360.01,-84.8 360.01,-48.8 501.99,-48.8 501.99,-84.8"/>
<text text-anchor="middle" x="431" y="-62.6" font-family="Times,serif" font-size="14.00">UnitCheckComponent</text>
</g>
<!-- UnitCheckComponent&#45;&gt;SysCheckModule -->
<g id="edge7" class="edge">
<title>UnitCheckComponent&#45;&gt;SysCheckModule</title>
<path fill="none" stroke="black" d="M431,-84.91C431,-104.14 431,-131.8 431,-131.8 431,-131.8 860.02,-131.8 860.02,-131.8"/>
<polygon fill="black" stroke="black" points="860.02,-135.3 870.02,-131.8 860.02,-128.3 860.02,-135.3"/>
</g>
<!-- WelcomeComponent -->
<g id="node8" class="node">
<title>WelcomeComponent</title>
<polygon fill="#ffffb3" stroke="black" points="342.47,-84.8 207.53,-84.8 207.53,-48.8 342.47,-48.8 342.47,-84.8"/>
<text text-anchor="middle" x="275" y="-62.6" font-family="Times,serif" font-size="14.00">WelcomeComponent</text>
</g>
<!-- WelcomeComponent&#45;&gt;SysCheckModule -->
<g id="edge8" class="edge">
<title>WelcomeComponent&#45;&gt;SysCheckModule</title>
<path fill="none" stroke="black" d="M275,-85.08C275,-106.12 275,-137.8 275,-137.8 275,-137.8 860.34,-137.8 860.34,-137.8"/>
<polygon fill="black" stroke="black" points="860.34,-141.3 870.34,-137.8 860.34,-134.3 860.34,-141.3"/>
</g>
<!-- SysCheckRoutingModule -->
<g id="node10" class="node">
<title>SysCheckRoutingModule</title>
<polygon fill="#8dd3c7" stroke="black" points="184.16,-84.8 181.16,-88.8 160.16,-88.8 157.16,-84.8 23.84,-84.8 23.84,-48.8 184.16,-48.8 184.16,-84.8"/>
<text text-anchor="middle" x="104" y="-62.6" font-family="Times,serif" font-size="14.00">SysCheckRoutingModule</text>
</g>
<!-- SysCheckRoutingModule&#45;&gt;SysCheckModule -->
<g id="edge9" class="edge">
<title>SysCheckRoutingModule&#45;&gt;SysCheckModule</title>
<path fill="none" stroke="black" d="M104,-84.89C104,-107.93 104,-144.8 104,-144.8 104,-144.8 860.39,-144.8 860.39,-144.8"/>
<polygon fill="black" stroke="black" points="860.39,-148.3 870.39,-144.8 860.39,-141.3 860.39,-148.3"/>
</g>
<!-- BackendService -->
<g id="node11" class="node">
<title>BackendService</title>
<ellipse fill="#fdb462" stroke="black" cx="1811" cy="-66.8" rx="73.56" ry="18"/>
<text text-anchor="middle" x="1811" y="-62.6" font-family="Times,serif" font-size="14.00">BackendService</text>
</g>
<!-- BackendService&#45;&gt;SysCheckModule -->
<g id="edge10" class="edge">
<title>BackendService&#45;&gt;SysCheckModule</title>
<path fill="none" stroke="black" d="M1811,-84.89C1811,-107.93 1811,-144.8 1811,-144.8 1811,-144.8 995.6,-144.8 995.6,-144.8"/>
<polygon fill="black" stroke="black" points="995.6,-141.3 985.6,-144.8 995.6,-148.3 995.6,-141.3"/>
</g>
<!-- SysCheckDataService -->
<g id="node12" class="node">
<title>SysCheckDataService</title>
<ellipse fill="#fdb462" stroke="black" cx="1622" cy="-66.8" rx="96.69" ry="18"/>
<text text-anchor="middle" x="1622" y="-62.6" font-family="Times,serif" font-size="14.00">SysCheckDataService</text>
</g>
<!-- SysCheckDataService&#45;&gt;SysCheckModule -->
<g id="edge11" class="edge">
<title>SysCheckDataService&#45;&gt;SysCheckModule</title>
<path fill="none" stroke="black" d="M1622,-85.08C1622,-106.12 1622,-137.8 1622,-137.8 1622,-137.8 995.68,-137.8 995.68,-137.8"/>
<polygon fill="black" stroke="black" points="995.68,-134.3 985.68,-137.8 995.68,-141.3 995.68,-134.3"/>
</g>
</g>
</svg>
